<?xml version="1.0" standalone="no"?> <!DOCTYPE svg PUBLIC "-//W3C//DTD SVG 20010904//EN" "http://www.w3.org/TR/2001/REC-SVG-20010904/DTD/svg10.dtd"> <svg version="1.0" xmlns="http://www.w3.org/2000/svg" width="600.000000pt" height="210.000000pt" viewBox="0 0 600.000000 210.000000" preserveAspectRatio="xMidYMid meet"> <g transform="translate(0.000000,210.000000) scale(0.100000,-0.100000)" fill="#ffffff" stroke="none"> <path d="M1060 2003 c-22 -111 -17 -103 -69 -103 -25 0 -80 -8 -123 -18 l-76 -19 -37 49 c-21 26 -41 51 -46 53 -6 5 -182 -76 -198 -91 -2 -2 19 -31 46 -66 l50 -62 -53 -84 -54 -83 37 7 c21 3 83 28 138 55 169 82 323 110 479 90 292 -39 538 -245 635 -531 16 -47 32 -108 36 -136 l6 -51 63 -11 c86 -16 86 -16 81 16 -2 15 -7 46 -10 69 l-5 41 69 27 69 27 -12 37 c-7 20 -23 70 -36 111 -13 41 -24 76 -25 77 0 1 -34 -5 -75 -13 -69 -13 -76 -13 -85 3 -5 9 -34 53 -64 97 -29 44 -55 86 -58 93 -3 7 16 38 42 69 27 31 44 59 39 64 -5 4 -45 38 -88 74 l-79 65 -49 -40 c-26 -23 -50 -45 -53 -49 -3 -5 -51 13 -106 40 -56 27 -117 52 -135 56 l-34 6 6 78 7 77 -84 12 c-46 6 -96 14 -111 17 -25 5 -27 3 -38 -53z m138 11 c68 -7 64 -2 63 -89 -1 -57 13 -80 49 -82 13 -1 34 -6 45 -12 11 -5 39 -17 62 -27 23 -10 39 -22 36 -27 -3 -6 -1 -7 5 -3 13 8 75 -28 65 -38 -13 -12 31 6 48 21 9 7 19 11 22 8 4 -3 5 -2 3 1 -3 3 9 20 27 37 18 18 33 25 35 19 2 -7 8 -10 13 -6 12 7 12 -9 -1 -24 -7 -9 -7 -9 2 -2 16 14 31 13 22 -2 -4 -7 -3 -8 5 -4 7 5 22 -3 37 -17 18 -18 21 -27 12 -31 -7 -3 -2 -3 11 0 17 4 22 2 18 -7 -2 -8 -10 -13 -16 -11 -9 2 -9 -3 -1 -18 13 -24 18 -25 16 -4 0 9 4 19 10 21 20 7 11 -29 -12 -44 -13 -8 -32 -30 -43 -49 l-20 -34 20 -35 c12 -19 26 -35 31 -35 6 0 8 -7 4 -15 -3 -8 0 -14 7 -12 7 1 11 -4 10 -10 -2 -7 2 -13 8 -13 5 0 16 -15 24 -32 32 -74 75 -95 139 -69 28 11 67 7 64 -7 -1 -4 2 -15 7 -25 4 -10 2 -24 -6 -35 -12 -15 -12 -16 2 -4 14 11 18 9 23 -13 4 -14 4 -31 0 -37 -4 -6 -3 -8 4 -4 20 12 18 -38 -2 -57 -10 -9 -22 -17 -25 -18 -3 0 -17 -2 -30 -3 -38 -4 -52 -33 -45 -88 8 -55 -3 -65 -57 -50 -31 7 -35 13 -47 63 -8 30 -15 64 -16 76 0 11 -4 19 -8 16 -8 -4 -12 19 -9 44 1 6 -3 14 -8 18 -6 3 -7 13 -4 22 4 10 2 14 -5 9 -6 -3 -14 3 -18 16 -3 12 -20 44 -36 70 -17 27 -31 59 -32 72 -1 17 -6 22 -20 18 -15 -4 -18 -1 -14 16 4 15 2 19 -9 15 -9 -4 -16 2 -20 16 -3 11 -9 18 -14 15 -5 -3 -9 3 -9 12 0 10 -3 14 -7 11 -9 -10 -34 14 -26 26 3 5 1 7 -4 4 -6 -4 -25 8 -41 27 -17 19 -32 32 -35 29 -10 -9 -68 41 -63 54 3 7 0 15 -6 19 -6 4 -8 3 -4 -4 13 -21 -15 -23 -50 -3 -19 12 -42 21 -50 21 -8 0 -13 3 -11 8 3 4 -9 8 -26 9 -17 1 -33 6 -36 11 -7 10 -10 10 -171 18 -98 5 -139 2 -190 -10 -36 -9 -72 -18 -80 -20 -37 -6 -76 -20 -89 -30 -7 -6 -19 -11 -25 -12 -6 0 -17 -2 -24 -2 -7 -1 -10 -6 -7 -12 3 -6 -1 -7 -9 -4 -9 3 -13 11 -9 17 3 6 1 7 -6 3 -6 -4 -9 -11 -6 -16 6 -10 -14 -27 -40 -32 -11 -2 -19 -9 -18 -16 2 -6 -4 -9 -11 -6 -19 7 -10 32 14 39 11 3 17 12 14 20 -3 7 2 26 11 42 9 15 14 20 11 10 -3 -10 -2 -15 3 -12 13 7 7 61 -6 58 -12 -2 -73 70 -73 86 0 6 26 23 58 38 31 15 66 34 76 42 11 9 16 10 12 4 -4 -8 -1 -13 9 -13 15 0 24 -14 29 -44 1 -8 6 -19 11 -23 4 -4 5 -2 1 5 -4 6 -3 12 3 12 6 0 15 -9 22 -21 9 -17 17 -20 42 -15 18 4 38 7 45 8 6 1 12 4 12 8 0 4 24 8 53 9 28 2 63 4 77 6 14 2 31 4 37 4 7 1 16 13 19 29 4 15 11 32 15 38 5 6 11 26 13 45 3 19 5 36 5 38 1 2 11 1 24 -2 12 -3 50 -9 85 -13z"/> <path d="M566 1851 c-3 -5 2 -15 12 -22 15 -12 16 -12 5 2 -7 9 -10 19 -6 22 3 4 4 7 0 7 -3 0 -8 -4 -11 -9z"/> <path d="M1696 1735 c4 -8 11 -15 16 -15 6 0 5 6 -2 15 -7 8 -14 15 -16 15 -2 0 -1 -7 2 -15z"/> <path d="M1486 1647 c3 -10 9 -15 12 -12 3 3 0 11 -7 18 -10 9 -11 8 -5 -6z"/> <path d="M1537 1607 c2 -4 10 -7 16 -6 27 3 38 -2 31 -13 -4 -7 -3 -9 1 -5 21 19 12 33 -20 33 -18 0 -31 -4 -28 -9z"/> <path d="M1649 1528 c7 -9 9 -23 5 -30 -6 -10 -4 -11 7 0 11 10 10 15 -6 30 -17 15 -18 15 -6 0z"/> <path d="M1781 1444 c0 -11 3 -14 6 -6 3 7 2 16 -1 19 -3 4 -6 -2 -5 -13z"/> <path d="M1736 1393 c-6 -14 -5 -15 5 -6 7 7 10 15 7 18 -3 3 -9 -2 -12 -12z"/> <path d="M2003 1185 c0 -7 6 -11 14 -8 7 3 13 6 13 8 0 2 -6 5 -13 8 -8 3 -14 -1 -14 -8z"/> <path d="M400 1633 c-103 -71 -191 -189 -224 -301 -23 -80 -30 -190 -16 -253 7 -30 14 -81 15 -113 3 -57 1 -63 -66 -180 -38 -66 -69 -129 -69 -141 0 -28 26 -41 97 -50 76 -8 89 -21 72 -69 -16 -43 -1 -66 42 -66 32 0 34 -6 19 -45 -8 -22 -6 -30 15 -51 18 -18 25 -36 25 -63 0 -76 19 -145 46 -168 31 -28 64 -29 138 -3 50 17 60 18 79 5 18 -11 30 -12 63 -3 49 13 64 5 134 -78 25 -30 50 -54 57 -54 7 0 41 20 77 45 152 107 326 162 539 172 l138 6 -93 39 c-51 22 -177 73 -280 114 l-187 74 -101 0 c-92 0 -100 2 -100 19 0 11 11 32 24 48 l25 29 -47 31 c-38 24 -61 31 -120 35 -88 6 -151 41 -197 108 -27 41 -30 52 -30 126 0 71 3 85 28 122 95 144 326 143 423 -1 22 -33 29 -57 32 -108 4 -60 7 -69 34 -89 l30 -22 25 25 c24 23 27 24 52 10 14 -9 33 -29 41 -46 28 -56 54 -67 206 -82 76 -8 165 -15 197 -15 61 0 66 -4 41 -31 -14 -16 -12 -17 41 -21 39 -2 59 1 64 10 6 10 34 9 147 -5 122 -15 141 -20 157 -40 19 -24 60 -30 86 -14 11 7 35 110 27 117 0 1 -20 4 -43 8 -37 5 -43 4 -43 -12 0 -10 -10 -26 -22 -36 -21 -19 -26 -19 -152 -2 -71 9 -131 18 -133 20 -2 2 6 24 17 50 11 26 20 54 20 63 0 9 6 12 18 9 9 -3 46 -10 82 -16 170 -29 375 -90 374 -111 0 -8 -3 -30 -7 -51 -5 -36 -5 -36 38 -47 24 -6 46 -11 48 -11 3 0 8 17 11 37 4 21 9 45 12 54 3 10 -3 19 -13 22 -10 3 -70 23 -133 45 -63 22 -173 52 -245 66 -71 15 -140 29 -152 32 -21 4 -22 8 -16 77 3 39 7 73 8 75 5 6 177 -18 216 -29 l42 -13 -6 -63 -6 -63 38 0 38 0 6 67 c5 48 3 69 -6 75 -21 13 -180 47 -253 54 l-71 7 -11 73 c-43 273 -239 506 -497 591 -69 23 -97 26 -210 27 -107 0 -145 -4 -215 -23 -95 -27 -121 -41 -71 -41 18 0 66 -11 107 -25 48 -16 97 -25 138 -25 344 0 607 -210 661 -528 l7 -42 -79 0 c-139 0 -281 -32 -395 -89 -36 -18 -55 -24 -51 -15 3 10 -3 14 -20 14 -21 0 -28 7 -37 38 -15 45 -56 119 -83 150 -16 17 -18 25 -9 34 7 7 12 22 12 34 0 17 14 27 75 53 41 17 105 40 142 52 37 11 77 24 88 28 13 5 28 2 46 -11 49 -36 104 9 78 65 -21 46 -70 43 -103 -8 -9 -14 -23 -25 -31 -25 -25 0 -160 -47 -237 -83 -48 -22 -81 -31 -93 -27 -11 4 -31 3 -44 -2 -19 -7 -31 -4 -54 13 -17 12 -72 50 -123 85 -52 34 -90 66 -84 69 5 3 10 16 10 29 0 35 61 61 105 45 28 -11 37 -10 59 5 47 30 25 96 -33 96 -31 0 -51 -16 -51 -42 0 -24 -82 -60 -147 -63 -50 -3 -54 -1 -89 37 -40 45 -84 135 -84 173 0 34 -10 35 -50 8z m872 -36 c55 -18 98 -36 96 -41 -2 -5 21 -19 50 -32 34 -15 51 -28 46 -35 -4 -7 -2 -10 7 -7 17 6 121 -100 113 -114 -4 -6 -2 -8 4 -4 12 7 44 -33 36 -46 -3 -5 -2 -7 3 -6 4 2 9 -1 10 -6 1 -5 5 -12 10 -15 13 -8 43 -71 43 -88 0 -7 5 -13 11 -13 6 0 9 -6 6 -12 -2 -7 2 -28 10 -46 7 -18 11 -37 7 -43 -3 -5 -1 -16 5 -23 7 -8 14 -37 18 -65 3 -28 10 -51 15 -51 4 0 1 -11 -7 -24 -10 -15 -15 -43 -14 -79 1 -36 -3 -63 -12 -74 -12 -15 -12 -16 1 -8 8 4 4 -4 -9 -18 -17 -19 -22 -33 -17 -51 3 -15 3 -26 -2 -26 -4 0 -13 -13 -19 -29 -8 -22 -17 -29 -35 -28 -15 1 -25 8 -25 19 -1 10 2 18 8 18 5 0 9 7 9 15 0 8 4 15 9 15 13 0 42 85 36 102 -4 9 1 22 9 31 11 11 14 30 11 78 -6 87 -13 151 -18 169 -2 8 -8 29 -12 45 -24 86 -109 225 -167 271 -20 16 -35 35 -33 42 3 7 0 10 -5 7 -6 -4 -28 7 -49 24 -21 17 -44 31 -50 31 -6 0 -11 5 -11 11 0 5 -4 8 -9 4 -5 -3 -12 -1 -16 5 -4 6 -11 7 -17 4 -7 -5 -8 -2 -3 6 6 10 4 12 -8 7 -19 -7 -23 9 -4 17 6 3 1 4 -13 2 -14 -2 -54 3 -90 10 -36 8 -110 15 -165 16 -108 1 -128 4 -118 20 4 7 -3 9 -19 6 -13 -2 -30 1 -36 9 -10 10 -7 14 13 19 14 3 31 1 39 -5 10 -8 15 -8 18 -1 1 5 14 12 27 15 13 2 25 6 27 8 2 2 45 2 95 0 69 -3 115 -12 191 -36z m-858 8 c-4 -8 -1 -15 4 -15 6 0 14 -16 18 -35 3 -19 12 -35 19 -35 7 0 16 -7 19 -16 5 -14 4 -15 -9 -4 -10 8 -15 9 -15 2 0 -6 14 -21 30 -34 17 -12 28 -28 26 -35 -3 -7 1 -10 8 -7 7 3 20 -6 29 -19 12 -19 23 -24 50 -22 19 2 40 6 46 9 5 4 15 -2 21 -13 6 -12 6 -22 1 -25 -18 -11 2 -46 38 -68 20 -12 40 -21 44 -20 5 2 5 -2 2 -8 -4 -7 0 -10 11 -8 11 2 18 -2 17 -8 -1 -7 11 -17 27 -24 17 -7 30 -17 30 -22 0 -5 4 -6 10 -3 6 3 7 -1 4 -10 -5 -11 -2 -14 12 -8 14 5 16 3 11 -12 -6 -15 -5 -16 8 -5 8 7 15 8 15 2 0 -17 30 -22 52 -9 17 10 22 9 26 -2 3 -10 6 -10 12 -2 4 7 7 -1 8 -18 0 -17 -3 -31 -8 -31 -5 0 -7 7 -4 15 4 8 4 15 1 15 -13 0 -14 -31 -2 -44 26 -26 86 -136 90 -164 2 -15 8 -26 15 -24 8 2 11 -4 8 -16 -4 -13 1 -18 15 -19 10 -1 27 -9 36 -17 10 -9 21 -13 26 -9 4 5 5 2 1 -5 -4 -7 -12 -10 -17 -6 -6 3 -9 -2 -7 -11 4 -25 -33 -29 -39 -4 -4 15 -9 17 -19 8 -7 -6 -18 -8 -23 -5 -5 4 -13 1 -18 -6 -11 -18 -53 -18 -53 -1 0 8 5 11 11 7 8 -5 8 -1 0 14 -6 11 -11 30 -11 41 0 11 -5 32 -12 48 -6 15 -12 31 -12 35 -1 4 -8 15 -16 25 -8 10 -17 27 -18 38 -3 16 -1 17 11 6 12 -9 17 -9 23 0 5 8 3 9 -6 4 -10 -6 -12 -4 -7 9 5 14 3 15 -13 6 -21 -11 -50 -4 -50 13 0 6 -3 8 -6 4 -4 -3 -29 5 -56 19 -27 14 -53 22 -58 19 -6 -4 -10 -1 -10 4 0 7 -19 8 -52 4 -29 -3 -69 -6 -88 -5 -28 1 -31 -1 -15 -8 17 -7 17 -9 3 -9 -10 -1 -20 -1 -23 -1 -3 1 -13 -6 -21 -15 -9 -8 -21 -12 -27 -8 -6 4 -8 0 -4 -11 5 -13 3 -15 -12 -7 -15 9 -18 7 -15 -14 1 -14 -3 -23 -9 -22 -7 1 -11 -4 -9 -10 1 -7 -6 -13 -15 -13 -15 0 -16 -2 -3 -10 14 -9 7 -14 -13 -11 -5 1 -6 -7 -2 -18 3 -11 2 -22 -4 -25 -5 -3 -8 -20 -7 -37 1 -16 -1 -32 -5 -35 -10 -6 5 -63 30 -111 11 -24 20 -48 19 -54 -2 -6 4 -14 12 -16 13 -4 13 -3 0 6 -9 7 -11 11 -3 11 7 0 16 -6 20 -14 4 -7 25 -25 45 -39 20 -13 34 -28 30 -32 -4 -5 -1 -5 6 -1 7 4 21 4 30 0 9 -4 40 -8 67 -9 58 -3 105 -19 105 -37 0 -9 3 -8 10 2 7 11 10 11 10 2 0 -7 6 -10 13 -7 6 4 1 -3 -13 -15 -14 -12 -18 -18 -10 -14 11 5 10 2 -2 -13 -22 -25 -22 -35 0 -59 14 -17 31 -20 113 -21 76 -1 106 -6 140 -22 23 -12 49 -21 56 -21 7 0 13 -4 13 -10 0 -5 7 -7 15 -4 8 4 26 -1 40 -10 14 -9 25 -14 25 -12 0 3 21 -4 46 -14 25 -11 51 -17 56 -13 7 4 8 1 4 -6 -5 -7 -15 -10 -23 -7 -8 3 -12 2 -9 -3 3 -5 24 -8 45 -7 22 1 38 -1 35 -6 -3 -4 10 -12 28 -17 18 -5 26 -10 18 -10 -13 -1 -13 -3 -1 -10 10 -6 3 -9 -22 -9 -19 0 -44 -3 -56 -7 -14 -4 -21 -2 -21 7 0 11 -2 11 -9 0 -4 -7 -22 -14 -40 -14 -17 -1 -34 -5 -37 -10 -3 -5 -12 -3 -20 3 -12 10 -14 10 -12 -1 2 -8 -11 -17 -32 -22 -19 -5 -49 -16 -67 -24 -17 -7 -36 -14 -42 -14 -6 0 -11 -5 -11 -11 0 -5 -4 -8 -9 -4 -13 7 -62 -16 -55 -27 3 -5 2 -7 -3 -6 -14 4 -83 -34 -77 -43 3 -5 -3 -6 -13 -2 -10 3 -15 3 -11 -2 9 -10 -31 -47 -43 -39 -5 3 -9 12 -9 20 0 9 -5 12 -12 8 -8 -5 -9 -2 -4 11 5 15 4 16 -9 5 -13 -11 -14 -10 -10 2 4 9 -1 18 -10 22 -9 3 -14 10 -11 15 3 5 -2 15 -12 22 -15 13 -16 12 -3 -3 7 -10 9 -18 4 -18 -16 0 -34 48 -20 54 9 3 9 5 0 5 -6 1 -15 -3 -18 -9 -4 -6 -16 -4 -31 6 -13 9 -24 12 -24 7 0 -6 -10 -9 -22 -9 -13 1 -28 -2 -34 -6 -14 -10 -46 0 -39 12 3 5 -10 6 -27 3 -18 -3 -36 -10 -40 -16 -4 -7 -20 -12 -36 -13 -15 -1 -38 -5 -50 -8 -17 -6 -20 -4 -17 14 2 11 0 18 -4 16 -21 -13 -44 23 -47 75 -6 83 -13 111 -31 124 -21 15 -27 49 -8 41 9 -3 12 0 8 9 -3 8 -8 13 -12 11 -4 -3 -6 8 -5 24 1 20 -2 27 -11 24 -7 -3 -16 -1 -19 5 -4 6 -13 8 -20 5 -19 -7 -31 15 -17 29 21 21 12 64 -17 87 -15 12 -21 18 -13 14 8 -4 12 -3 8 2 -3 5 -28 9 -56 9 -28 0 -51 3 -51 7 0 3 -9 9 -19 13 -19 6 -19 7 2 43 12 20 22 43 24 51 1 8 6 17 10 20 19 13 52 69 45 75 -4 4 -1 6 7 4 7 -1 16 3 19 11 3 8 0 11 -7 7 -15 -9 -14 -1 2 16 20 22 38 58 29 58 -5 0 -9 14 -10 32 -1 25 2 29 10 18 8 -12 8 -10 2 5 -4 11 -7 28 -8 38 0 9 -5 17 -11 17 -5 0 -1 8 10 17 14 11 15 14 3 10 -11 -4 -18 1 -22 16 -10 37 -7 133 6 189 6 29 11 59 9 67 -1 7 2 10 8 6 6 -3 11 2 11 12 0 11 5 24 12 31 9 9 9 12 -3 12 -9 0 -10 3 -3 8 13 8 38 52 39 67 0 6 6 10 13 10 8 0 22 16 33 35 10 19 18 31 19 26 0 -4 8 0 18 11 9 10 13 12 7 3 -9 -13 -8 -13 8 -1 9 7 17 18 17 24 0 5 8 16 18 23 22 17 23 17 16 -1z m433 -125 c3 -11 6 -23 7 -27 0 -4 -12 -8 -29 -9 -25 -1 -30 3 -31 22 -1 13 2 22 6 19 5 -3 11 -1 15 5 10 16 26 11 32 -10z m583 -169 c14 -27 13 -31 -7 -24 -10 4 -14 2 -9 -5 4 -7 -1 -10 -13 -9 -19 1 -35 32 -25 49 10 15 43 8 54 -11z m248 -426 c-2 -35 -7 -67 -10 -70 -3 -3 -34 -1 -69 5 -35 6 -144 13 -243 17 -198 7 -198 7 -56 57 94 33 213 54 309 55 l73 1 -4 -65z m409 -25 c-1 -11 -5 -20 -10 -20 -5 0 -7 7 -3 15 3 8 1 15 -4 15 -13 0 -13 -23 1 -37 6 -6 8 -20 4 -32 -12 -38 -25 -22 -25 29 0 43 3 50 19 50 14 0 19 -6 18 -20z m-627 -50 c160 -11 200 -17 200 -30 0 -5 -9 -34 -21 -65 l-20 -55 -52 0 c-103 1 -333 27 -362 41 -16 8 -36 27 -43 42 -11 23 -11 29 2 43 9 8 16 20 16 25 0 12 98 11 280 -1z m257 -102 c-3 -8 -6 -5 -6 6 -1 11 2 17 5 13 3 -3 4 -12 1 -19z m363 -78 c0 -5 -3 -10 -8 -10 -4 0 -7 -15 -7 -32 0 -38 -29 -51 -50 -21 -14 19 -2 48 16 37 5 -3 6 2 3 10 -3 8 2 16 13 19 30 8 33 7 33 -3z m205 -8 c12 -8 14 -56 3 -67 -3 -4 -16 -4 -27 0 -15 4 -21 13 -18 28 5 40 21 55 42 39z"/> <path d="M1320 1539 c0 -5 5 -7 10 -4 6 3 10 8 10 11 0 2 -4 4 -10 4 -5 0 -10 -5 -10 -11z"/> <path d="M1498 1443 c10 -4 10 -8 1 -20 -10 -11 -8 -18 9 -35 20 -21 67 -34 56 -16 -3 5 -13 7 -22 6 -12 -2 -17 4 -17 22 0 30 -12 50 -28 49 -8 0 -8 -2 1 -6z m19 -33 c-1 -12 -5 -16 -10 -11 -5 5 -6 14 -3 20 11 16 15 13 13 -9z"/> <path d="M1563 1338 c-4 -7 -1 -8 7 -3 10 6 12 4 7 -8 -3 -10 -2 -17 3 -17 6 0 10 7 10 16 0 9 5 12 13 8 6 -4 8 -3 4 1 -12 13 -36 15 -44 3z"/> <path d="M1610 1266 c0 -2 8 -10 18 -17 15 -13 16 -12 3 4 -13 16 -21 21 -21 13z"/> <path d="M803 1175 c0 -8 4 -12 9 -9 4 3 8 9 8 15 0 5 -4 9 -8 9 -5 0 -9 -7 -9 -15z"/> <path d="M792 1121 c-11 -7 -10 -9 3 -14 9 -4 13 -3 10 2 -3 5 3 12 12 14 13 3 14 5 3 6 -8 0 -21 -3 -28 -8z"/> <path d="M1046 863 c-6 -14 -5 -15 5 -6 7 7 10 15 7 18 -3 3 -9 -2 -12 -12z"/> <path d="M1116 812 c-3 -5 1 -9 9 -9 8 0 12 4 9 9 -3 4 -7 8 -9 8 -2 0 -6 -4 -9 -8z"/> <path d="M158 633 c7 -3 16 -2 19 1 4 3 -2 6 -13 5 -11 0 -14 -3 -6 -6z"/> <path d="M230 500 c0 -5 5 -10 11 -10 5 0 7 5 4 10 -3 6 -8 10 -11 10 -2 0 -4 -4 -4 -10z"/> <path d="M765 159 c-4 -6 -5 -12 -2 -15 2 -3 7 2 10 11 7 17 1 20 -8 4z"/> <path d="M857 89 c7 -7 15 -10 18 -7 3 3 -2 9 -12 12 -14 6 -15 5 -6 -5z"/> <path d="M1395 1300 c-3 -6 1 -7 9 -4 18 7 21 14 7 14 -6 0 -13 -4 -16 -10z"/> <path d="M3075 1564 c-55 -18 -91 -61 -99 -117 -10 -66 8 -120 50 -156 65 -53 147 -52 211 4 35 30 37 36 41 101 4 83 -6 114 -50 147 -40 31 -101 39 -153 21z m96 -44 c45 -24 61 -101 35 -165 -25 -59 -84 -73 -133 -31 -25 22 -28 30 -28 91 0 61 3 69 28 91 30 25 66 31 98 14z m-111 -3 c0 -2 -8 -11 -18 -20 -15 -14 -19 -15 -19 -2 0 8 4 12 8 9 4 -2 10 0 14 6 6 10 15 14 15 7z m175 -7 c3 -6 -1 -7 -9 -4 -18 7 -21 14 -7 14 6 0 13 -4 16 -10z m-215 -61 c0 -10 -3 -19 -7 -19 -5 0 -8 11 -8 24 0 13 3 22 8 19 4 -2 7 -13 7 -24z m236 -34 c-1 -41 -16 -48 -16 -7 0 24 7 42 15 42 1 0 1 -16 1 -35z m-236 -47 c0 -19 -16 -5 -17 14 -2 18 0 20 7 8 5 -8 10 -18 10 -22z m233 -12 c3 -8 -2 -20 -11 -27 -14 -11 -15 -11 -5 0 6 7 9 20 6 27 -3 8 -3 14 0 14 3 0 7 -6 10 -14z m-226 -21 c0 -8 -4 -12 -9 -9 -5 3 -6 10 -3 15 9 13 12 11 12 -6z"/> <path d="M3522 1570 c-51 -12 -72 -37 -72 -86 0 -36 5 -46 29 -63 16 -12 32 -21 36 -21 18 0 74 -33 79 -46 3 -9 1 -24 -4 -35 -12 -21 -70 -26 -114 -9 -24 9 -26 7 -26 -19 0 -27 3 -29 54 -35 91 -12 156 27 156 93 0 45 -15 60 -92 95 -60 26 -74 50 -43 76 15 12 75 10 106 -4 13 -6 17 -2 17 18 0 15 -7 27 -17 30 -40 11 -79 14 -109 6z m-32 -54 c0 -3 -4 -8 -10 -11 -5 -3 -10 -1 -10 4 0 6 5 11 10 11 6 0 10 -2 10 -4z m16 -67 c4 -8 1 -8 -14 0 -12 6 -24 16 -28 22 -4 8 -1 8 14 0 12 -6 24 -16 28 -22z m84 -49 c0 -5 7 -10 15 -10 8 0 15 -5 15 -11 0 -5 4 -8 8 -5 11 6 8 -51 -3 -62 -4 -4 -4 3 -1 15 6 18 0 30 -26 53 -18 16 -27 30 -20 30 6 0 12 -4 12 -10z"/> <path d="M3808 1568 c-106 -28 -142 -192 -60 -271 73 -70 203 -52 247 33 22 42 19 138 -5 177 -33 54 -110 80 -182 61z m94 -49 c11 -6 26 -26 34 -44 49 -117 -47 -225 -133 -151 -25 22 -28 30 -28 91 0 61 3 69 28 91 30 26 66 31 99 13z m-144 -39 c-7 -11 -15 -15 -17 -9 -2 6 3 15 10 20 20 12 21 11 7 -11z m222 -47 c0 -43 -5 -41 -13 5 -4 18 -2 32 3 32 6 0 10 -16 10 -37z m-230 -4 c0 -6 -4 -7 -10 -4 -5 3 -10 11 -10 16 0 6 5 7 10 4 6 -3 10 -11 10 -16z m-3 -61 c4 -28 -6 -18 -12 12 -2 12 -1 20 2 16 4 -4 8 -16 10 -28z m233 -8 c0 -16 -31 -60 -42 -60 -5 0 1 10 12 22 11 12 18 28 16 35 -3 7 -1 13 4 13 6 0 10 -5 10 -10z m-205 -40 c10 -11 14 -20 9 -20 -5 0 -17 9 -27 20 -9 11 -13 20 -8 20 4 0 16 -9 26 -20z"/> <path d="M5095 1571 c-73 -18 -108 -63 -113 -146 -4 -77 18 -120 79 -153 116 -62 240 28 226 163 -3 29 -11 62 -19 74 -29 47 -111 77 -173 62z m86 -54 c55 -42 51 -189 -6 -211 -71 -27 -125 20 -125 109 0 74 30 114 85 114 17 0 37 -5 46 -12z m61 -33 c-9 -16 -10 -14 -9 8 1 15 6 23 11 18 4 -4 4 -16 -2 -26z m-204 4 c-7 -13 -12 -29 -13 -37 0 -8 -6 -16 -14 -19 -10 -3 -11 0 -5 9 5 8 9 20 10 27 2 13 23 42 31 42 2 0 -2 -10 -9 -22z m208 -125 c-9 -7 -11 -8 -6 -1 6 7 11 35 12 63 l2 50 3 -49 c3 -36 0 -53 -11 -63z m-217 -3 c0 -9 -4 -8 -9 5 -5 11 -9 27 -9 35 0 9 4 8 9 -5 5 -11 9 -27 9 -35z m24 -43 c4 3 7 1 7 -5 0 -20 -19 -13 -30 11 -10 20 -10 20 3 5 8 -10 17 -15 20 -11z m197 20 c0 -2 -10 -12 -22 -23 l-23 -19 19 23 c18 21 26 27 26 19z"/> <path d="M5730 1570 c-40 -10 -80 -51 -80 -84 0 -35 36 -74 80 -87 39 -12 80 -42 80 -59 0 -34 -69 -51 -124 -30 -24 9 -26 7 -26 -19 0 -27 3 -30 48 -35 114 -15 194 56 151 135 -6 11 -40 34 -75 49 -70 32 -88 55 -59 76 22 17 78 18 106 4 16 -9 19 -7 19 14 0 14 -3 27 -7 29 -19 11 -81 14 -113 7z m-37 -84 c-4 -5 7 -20 23 -33 16 -12 24 -23 17 -23 -6 0 -15 5 -18 10 -4 6 -11 8 -16 4 -5 -3 -8 0 -7 8 2 7 -3 12 -10 10 -10 -2 -10 2 -2 18 8 14 8 20 0 20 -6 0 -8 5 -4 11 4 8 9 7 15 -2 4 -7 5 -17 2 -23z m141 -102 c3 -8 -1 -14 -9 -14 -8 0 -14 6 -12 13 1 6 -4 11 -11 9 -8 -1 -11 2 -7 7 7 13 32 4 39 -15z"/> <path d="M2145 1415 l0 -155 103 0 102 0 0 26 c0 26 0 26 -70 22 l-70 -4 0 47 0 46 61 -1 c57 -1 62 1 65 22 4 21 1 22 -61 22 l-65 0 0 43 0 42 70 -3 c69 -4 70 -3 70 22 l0 26 -102 0 -103 0 0 -155z m43 106 c-7 -9 -14 -18 -15 -20 -2 -2 -3 5 -3 16 0 11 7 20 15 20 12 0 12 -3 3 -16z m-3 -82 c-2 -10 -1 -18 3 -18 20 3 23 -3 9 -25 -9 -12 -17 -38 -20 -57 -3 -31 -4 -31 -5 9 -1 28 2 42 11 42 9 0 9 2 0 8 -7 4 -12 25 -11 45 1 22 5 33 9 26 4 -7 6 -20 4 -30z"/> <path d="M2390 1415 l0 -155 31 0 31 0 -4 115 c-1 63 0 115 5 115 4 0 7 -5 7 -10 0 -6 30 -57 68 -115 62 -96 69 -104 100 -104 l32 -1 0 155 0 155 -27 0 -28 0 3 -112 c3 -93 0 -117 -13 -133 -9 -11 -14 -14 -10 -7 3 6 1 12 -5 12 -6 0 -8 5 -5 10 4 6 11 7 17 4 21 -13 -2 28 -69 128 -61 91 -68 98 -99 98 l-34 0 0 -155z m65 95 c-5 -8 -11 -8 -21 1 -12 10 -12 14 -2 20 16 10 33 -5 23 -21z m85 -113 c0 -7 -6 -3 -12 8 -6 11 -16 27 -22 35 -6 9 -1 5 12 -8 12 -13 22 -28 22 -35z m98 -63 c0 -19 -3 -23 -10 -13 -7 10 -8 8 -5 -8 6 -27 -10 -42 -19 -19 -5 14 19 66 30 66 2 0 4 -12 4 -26z"/> <path d="M2720 1544 c0 -26 0 -26 75 -22 41 2 75 1 75 -1 0 -7 -142 -201 -151 -207 -5 -3 -9 -16 -9 -30 l0 -24 120 0 120 0 0 26 0 26 -80 -4 c-44 -2 -80 -2 -80 0 0 1 36 52 80 113 44 60 80 119 80 129 0 19 -7 20 -115 20 l-115 0 0 -26z m187 -26 c1 -10 -2 -16 -7 -13 -4 3 -10 -1 -13 -7 -2 -7 -4 -1 -3 13 1 29 21 35 23 7z m-137 -218 c0 -5 -7 -10 -16 -10 -8 0 -12 5 -9 10 3 6 10 10 16 10 5 0 9 -4 9 -10z"/> <path d="M4065 1415 l0 -155 98 0 97 0 0 26 c0 25 -1 26 -65 22 l-65 -3 0 133 0 132 -32 0 -33 0 0 -155z m32 -17 c-2 -29 -3 -8 -3 47 0 55 1 79 3 53 2 -26 2 -71 0 -100z m13 -98 c0 -5 -5 -10 -11 -10 -5 0 -7 5 -4 10 3 6 8 10 11 10 2 0 4 -4 4 -10z"/> <path d="M4290 1441 c6 -146 13 -163 82 -182 65 -17 145 11 167 58 6 13 11 75 11 138 l0 115 -30 0 -30 0 0 -115 c0 -102 -2 -117 -20 -135 -11 -11 -33 -20 -50 -20 -17 0 -39 9 -50 20 -18 18 -20 33 -20 135 l0 115 -32 0 -33 0 5 -129z m33 -61 c3 -11 1 -20 -4 -20 -5 0 -9 9 -9 20 0 11 2 20 4 20 2 0 6 -9 9 -20z m31 -68 c3 -5 -1 -9 -9 -9 -8 0 -12 4 -9 9 3 4 7 8 9 8 2 0 6 -4 9 -8z"/> <path d="M4580 1544 c0 -25 2 -26 45 -22 l45 3 0 -132 0 -133 35 0 36 0 -2 132 -1 132 46 -3 c44 -2 46 -1 46 23 l0 26 -125 0 -125 0 0 -26z m135 -14 c3 -5 -1 -10 -9 -10 -8 0 -18 5 -21 10 -3 6 1 10 9 10 8 0 18 -4 21 -10z m-5 -36 c0 -8 -5 -12 -10 -9 -6 4 -8 11 -5 16 9 14 15 11 15 -7z m0 -81 c-4 -56 -5 -57 -8 -14 -3 38 2 71 10 71 2 0 1 -26 -2 -57z m-3 -115 c-3 -8 -6 -5 -6 6 -1 11 2 17 5 13 3 -3 4 -12 1 -19z"/> <path d="M4860 1415 l0 -155 35 0 35 0 0 155 0 155 -35 0 -35 0 0 -155z m37 53 c-3 -7 -5 -2 -5 12 0 14 2 19 5 13 2 -7 2 -19 0 -25z m0 -140 c-2 -13 -4 -5 -4 17 -1 22 1 32 4 23 2 -10 2 -28 0 -40z"/> <path d="M5340 1415 l0 -155 31 0 30 0 -2 128 c-1 70 -4 121 -6 115 -7 -21 -18 -15 -19 11 -1 14 5 27 14 31 12 4 13 3 2 -10 -11 -13 -10 -14 4 -9 13 5 16 0 16 -27 0 -24 18 -61 68 -136 62 -95 69 -102 100 -103 l32 0 0 155 0 155 -31 0 c-24 0 -30 -3 -25 -16 3 -9 6 -60 6 -115 0 -72 3 -98 12 -96 7 1 13 -10 13 -25 1 -16 -4 -28 -10 -28 -19 0 -46 41 -40 60 4 13 -15 51 -61 119 -63 94 -69 101 -101 101 l-33 0 0 -155z m87 73 c-3 -8 -6 -5 -6 6 -1 11 2 17 5 13 3 -3 4 -12 1 -19z m91 -143 c-3 -3 -9 2 -12 12 -6 14 -5 15 5 6 7 -7 10 -15 7 -18z"/> <path d="M2743 1448 c-20 -26 -22 -35 -8 -35 8 0 12 4 9 9 -3 5 0 15 6 23 7 8 10 15 7 15 -2 0 -9 -6 -14 -12z"/> <path d="M2907 1402 c-20 -22 -21 -32 -5 -32 6 0 8 3 5 7 -4 3 0 15 10 25 9 10 14 18 11 18 -3 0 -12 -8 -21 -18z"/> <path d="M3477 1369 c7 -7 15 -10 18 -7 3 3 -2 9 -12 12 -14 6 -15 5 -6 -5z"/> <path d="M3517 1339 c7 -7 15 -10 18 -7 3 3 -2 9 -12 12 -14 6 -15 5 -6 -5z"/> <path d="M5540 1346 c0 -4 6 -14 14 -21 12 -12 15 -12 21 2 3 10 3 14 -1 10 -4 -4 -13 -2 -21 4 -7 6 -13 8 -13 5z"/> <path d="M824 1273 c3 -3 17 -7 32 -9 14 -1 23 0 20 3 -3 4 -18 8 -32 9 -14 2 -24 0 -20 -3z"/> <path d="M3965 1240 c-4 -6 1 -7 11 -3 10 4 15 2 11 -4 -3 -5 0 -10 8 -10 11 0 12 4 4 14 -14 15 -26 17 -34 3z"/> <path d="M3405 1063 c-42 -8 -69 -39 -69 -78 0 -63 63 -95 159 -81 45 7 45 8 45 47 0 39 0 39 -40 39 -22 0 -40 -4 -40 -10 0 -5 9 -10 21 -10 15 0 20 -5 17 -22 -4 -29 -58 -37 -94 -13 -31 20 -34 79 -4 95 25 14 67 16 103 7 20 -5 27 -4 27 7 0 21 -67 31 -125 19z"/> <path d="M3678 1062 l-38 -3 0 -77 c0 -72 2 -78 21 -79 18 -2 21 3 17 33 -4 31 -2 34 23 34 18 0 34 -10 52 -33 13 -18 34 -33 46 -34 28 -2 27 5 -10 43 l-30 31 25 7 c19 5 26 13 26 31 0 13 -5 27 -12 31 -18 11 -79 19 -120 16z m97 -32 c13 -20 -17 -40 -59 -40 -37 0 -41 2 -41 25 0 23 4 25 47 25 26 0 50 -5 53 -10z"/> <path d="M3965 1064 c-43 -10 -69 -40 -69 -79 0 -64 74 -100 155 -76 103 31 82 147 -28 156 -21 2 -47 1 -58 -1z m73 -25 c54 -19 56 -87 2 -109 -38 -16 -76 -6 -96 26 -20 30 -7 69 28 84 30 12 30 12 66 -1z"/> <path d="M4210 996 c0 -80 12 -91 92 -91 77 0 98 22 98 101 0 47 -2 54 -20 54 -18 0 -20 -7 -20 -54 0 -60 -16 -86 -54 -86 -44 0 -60 22 -57 84 2 51 0 56 -18 56 -19 0 -21 -6 -21 -64z"/> <path d="M4496 983 c1 -71 2 -76 24 -80 20 -3 22 0 18 27 -4 29 -3 30 36 30 76 0 125 43 92 79 -16 18 -31 21 -95 21 l-76 0 1 -77z m138 41 c9 -22 -23 -44 -65 -44 -38 0 -39 1 -35 33 3 17 5 32 5 32 29 3 91 -11 95 -21z"/> <path d="M622 1009 c-135 -67 -139 -247 -8 -324 33 -19 57 -25 105 -25 54 0 69 -5 116 -35 169 -108 373 -189 588 -236 110 -23 375 -36 427 -21 34 10 32 10 -30 13 -36 1 -73 2 -84 2 -17 0 -18 6 -12 72 l7 72 -118 6 c-243 13 -451 73 -659 193 -27 15 -50 28 -51 29 -1 0 2 20 8 44 18 82 -24 165 -105 206 -62 31 -126 33 -184 4z m162 -30 c-3 -5 2 -6 10 -3 9 3 16 1 16 -6 0 -6 5 -8 10 -5 6 3 10 -1 10 -9 0 -9 6 -13 14 -10 13 5 20 -7 34 -56 2 -8 4 -45 4 -82 0 -38 4 -68 9 -68 6 0 7 -4 4 -10 -3 -5 0 -10 8 -10 8 0 17 -7 21 -15 3 -8 11 -15 18 -15 9 0 8 3 -2 10 -10 7 -11 10 -2 10 7 0 15 -7 18 -15 4 -8 16 -15 28 -15 11 0 36 -14 55 -30 18 -17 39 -30 45 -30 6 0 4 5 -4 10 -8 5 -10 10 -4 10 12 0 46 -34 40 -41 -2 -2 12 -5 32 -6 31 -2 67 -12 142 -40 8 -4 23 -5 34 -4 11 2 16 -2 11 -9 -5 -7 1 -9 18 -4 14 3 51 -2 83 -11 32 -9 101 -18 157 -19 72 -2 101 -6 108 -17 12 -19 11 -32 -2 -23 -7 4 -10 -4 -9 -22 3 -47 0 -70 -8 -59 -4 6 -41 11 -82 11 -87 2 -251 32 -262 48 -6 8 -10 8 -16 -1 -5 -8 -11 -8 -24 1 -10 7 -14 17 -11 22 4 5 1 3 -7 -3 -18 -16 -34 -17 -24 -1 5 8 0 9 -15 5 -13 -3 -20 -3 -17 0 3 3 -42 21 -99 41 -58 19 -103 37 -101 41 2 3 -2 12 -10 19 -11 10 -14 10 -15 0 0 -9 -2 -10 -5 -1 -3 7 -12 9 -20 6 -8 -3 -14 0 -14 6 0 6 -10 11 -22 11 -12 0 -18 3 -15 7 9 8 -12 33 -27 33 -6 0 -4 -5 4 -10 8 -5 10 -10 4 -10 -15 0 -36 25 -28 33 4 4 -4 4 -16 2 -12 -2 -20 -2 -17 2 8 7 -35 31 -75 43 -17 5 -28 5 -28 -1 0 -12 -53 -12 -82 1 -43 20 -73 40 -60 40 7 0 10 5 7 11 -4 6 -13 8 -20 5 -27 -10 -48 87 -33 155 6 30 76 86 120 95 45 10 122 -1 112 -17z"/> <path d="M679 957 c-12 -4 -25 -4 -30 -1 -5 3 -9 2 -8 -3 3 -19 -2 -34 -10 -29 -5 3 -11 -4 -14 -15 -3 -12 -10 -19 -15 -15 -5 3 -6 -13 -2 -38 6 -37 4 -43 -9 -39 -13 4 -13 3 -2 -5 8 -6 10 -15 5 -23 -6 -12 -5 -12 8 -1 13 10 17 10 22 -4 3 -9 3 -21 -1 -26 -3 -7 -1 -8 5 -4 7 4 12 2 12 -4 0 -6 5 -8 10 -5 6 3 10 2 10 -3 0 -6 14 -15 31 -21 26 -9 39 -7 75 9 24 10 44 25 44 32 0 10 2 10 9 -1 7 -10 9 -8 9 10 0 13 3 40 7 59 9 49 -15 107 -47 112 -13 2 -22 9 -20 17 3 12 0 12 -14 0 -10 -8 -15 -9 -11 -3 8 13 -31 14 -64 1z m80 -33 c86 -34 74 -155 -18 -177 -60 -15 -129 52 -116 112 8 37 51 76 87 80 4 1 25 -6 47 -15z"/> <path d="M850 900 c-9 -6 -10 -10 -3 -10 6 0 15 5 18 10 8 12 4 12 -15 0z"/> <path d="M848 837 c-3 -19 -2 -25 4 -19 6 6 8 18 6 28 -3 14 -5 12 -10 -9z"/> <path d="M620 736 c0 -2 8 -10 18 -17 15 -13 16 -12 3 4 -13 16 -21 21 -21 13z"/> <path d="M678 693 c7 -3 16 -2 19 1 4 3 -2 6 -13 5 -11 0 -14 -3 -6 -6z"/> <path d="M884 675 c1 -8 8 -21 16 -28 12 -10 12 -9 2 4 -6 9 -9 18 -6 21 3 3 1 9 -4 12 -6 3 -9 -1 -8 -9z"/> <path d="M946 652 c-2 -4 -1 -14 4 -22 7 -11 9 -9 7 8 -1 24 -3 26 -11 14z"/> <path d="M2435 990 c-4 -6 142 -10 394 -10 266 0 401 3 401 10 0 14 -787 13 -795 0z"/> <path d="M4775 990 c-4 -7 125 -10 380 -10 255 0 384 3 380 10 -4 6 -142 10 -380 10 -238 0 -376 -4 -380 -10z"/> <path d="M4149 953 c-13 -16 -12 -17 4 -4 16 13 21 21 13 21 -2 0 -10 -8 -17 -17z"/> <path d="M4630 920 c-9 -6 -10 -10 -3 -10 6 0 15 5 18 10 8 12 4 12 -15 0z"/> <path d="M1850 855 c0 -42 2 -45 28 -45 15 0 37 -3 50 -6 20 -6 22 -3 22 39 0 42 -2 45 -31 51 -64 13 -69 10 -69 -39z m55 4 c-20 -8 -20 -8 0 -9 l20 -1 -20 -8 c-14 -6 -22 -4 -27 8 -11 26 -9 28 19 23 25 -5 25 -6 8 -13z"/> <path d="M1832 683 c-6 -21 -8 -40 -4 -44 4 -4 26 -9 49 -12 36 -4 43 -2 48 14 3 10 7 27 10 38 5 15 -3 21 -39 30 -25 6 -47 11 -49 11 -2 0 -9 -17 -15 -37z m72 -16 c3 -13 0 -17 -11 -13 -8 3 -22 6 -31 7 -11 0 -12 2 -4 6 6 2 10 9 7 13 -3 5 3 8 14 7 11 0 22 -10 25 -20z"/> <path d="M1823 468 l-8 -53 30 -6 c16 -4 50 -10 75 -13 l46 -7 2 38 c2 21 5 45 8 54 3 13 -5 18 -38 23 -24 4 -57 9 -75 12 -31 6 -31 6 -40 -48z m118 13 c8 -1 4 -59 -5 -68 -3 -3 -6 -2 -6 4 0 6 -6 11 -12 10 -43 -1 -67 5 -72 19 -10 27 12 43 52 39 20 -2 40 -4 43 -4z"/> </g> </svg>