<?xml version="1.0" standalone="no"?>
<!DOCTYPE svg PUBLIC "-//W3C//DTD SVG 20010904//EN"
 "http://www.w3.org/TR/2001/REC-SVG-20010904/DTD/svg10.dtd">
<svg version="1.0" xmlns="http://www.w3.org/2000/svg"
 width="600.000000pt" height="189.000000pt" viewBox="0 0 600.000000 189.000000"
 preserveAspectRatio="xMidYMid meet">
<g transform="translate(0.000000,189.000000) scale(0.100000,-0.100000)"
fill="#000000" stroke="none">
<path d="M1026 1828 c-3 -7 -12 -41 -22 -75 -16 -61 -18 -63 -50 -63 -19 0
-69 -7 -113 -16 l-80 -16 -33 37 c-18 21 -38 46 -45 55 -11 16 -20 13 -110
-33 -54 -27 -100 -51 -101 -53 -2 -1 15 -26 37 -54 23 -29 41 -56 41 -61 0 -5
-18 -38 -40 -73 -62 -98 -56 -103 63 -44 184 91 288 115 460 105 329 -18 605
-243 664 -543 8 -44 21 -81 27 -81 6 0 36 -4 67 -8 l57 -7 -5 43 c-2 24 -5 52
-7 61 -3 13 13 24 65 44 38 15 68 32 65 38 -2 6 -17 48 -32 94 -31 91 -29 89
-116 71 -47 -10 -53 -10 -63 6 -5 10 -33 50 -61 91 l-52 72 48 54 48 54 -76
58 c-41 32 -80 60 -86 62 -6 2 -33 -15 -61 -39 l-49 -44 -62 33 c-35 18 -87
40 -116 50 -49 15 -54 19 -52 43 2 14 5 47 7 72 l4 47 -91 11 c-50 7 -99 15
-109 17 -9 3 -19 -1 -21 -8z m154 -37 c36 -7 39 -14 27 -66 -2 -11 1 -26 7
-34 9 -12 8 -13 -2 -7 -11 7 -12 4 -4 -10 17 -31 53 -56 82 -58 14 -1 39 -10
56 -21 16 -10 34 -20 39 -20 22 -2 64 -29 58 -37 -3 -6 5 -4 18 3 13 7 30 12
38 10 7 -1 11 1 8 6 -5 8 18 35 24 29 2 -2 13 6 24 17 11 11 13 16 5 12 -8 -5
-11 -4 -7 0 13 15 36 14 30 -1 -3 -8 1 -14 8 -14 8 0 27 -11 42 -24 16 -13 38
-31 50 -40 l22 -15 -24 -21 c-13 -11 -20 -20 -17 -20 7 0 -4 -15 -37 -52 -15
-16 -16 -22 -7 -31 10 -9 11 -9 5 3 -5 9 -4 12 1 7 5 -5 10 -13 10 -18 1 -5 2
-13 3 -18 0 -5 10 -13 21 -16 11 -4 18 -10 15 -14 -2 -4 4 -17 14 -27 9 -11
15 -26 13 -33 -3 -8 0 -11 6 -7 7 4 14 -4 18 -19 3 -14 19 -32 35 -40 31 -17
52 -20 29 -5 -12 7 -8 10 15 10 17 0 37 4 44 9 21 14 51 -5 51 -32 0 -12 7
-32 15 -43 14 -21 30 -82 18 -70 -4 3 -17 -1 -30 -9 -13 -9 -29 -13 -35 -9 -6
4 -8 3 -5 -3 4 -6 -7 -16 -24 -22 -30 -10 -31 -13 -25 -50 8 -51 0 -74 -22
-62 -18 10 -24 11 -47 11 -11 0 -15 11 -15 36 0 23 -4 33 -11 28 -8 -4 -9 0
-4 15 4 13 2 21 -5 21 -7 0 -9 7 -6 16 3 8 -3 33 -14 55 -11 21 -17 39 -13 39
5 0 3 4 -2 8 -9 6 -27 39 -44 77 -2 6 6 -1 18 -15 l22 -25 -17 28 c-10 16 -23
26 -30 23 -8 -3 -14 -2 -14 2 0 10 -47 68 -87 107 -32 31 -44 53 -21 39 7 -4
8 -3 4 5 -4 6 -12 9 -17 5 -11 -6 -109 53 -109 67 0 5 -3 8 -8 7 -4 -2 -25 4
-47 13 -22 9 -59 23 -83 30 -28 8 -38 15 -30 20 7 5 0 7 -17 5 -17 -2 -34 0
-40 4 -20 14 -46 20 -39 9 4 -8 -1 -9 -17 -3 -20 7 -123 9 -256 4 -18 0 -35
-5 -38 -10 -4 -6 -11 -7 -17 -4 -6 4 -13 1 -17 -5 -6 -9 -16 -9 -37 -1 -28 10
-28 9 -9 -6 19 -16 19 -16 -9 -10 -16 4 -32 3 -35 -1 -16 -23 -161 -93 -161
-78 0 3 12 12 28 20 15 9 19 14 9 11 -16 -5 -15 -2 4 35 l20 40 -20 35 c-24
41 -26 48 -8 38 8 -5 8 -2 -2 9 -15 18 -26 23 -16 7 3 -5 2 -10 -4 -10 -15 0
-21 14 -11 29 4 8 13 10 20 6 8 -5 11 -4 7 2 -3 5 10 15 29 22 19 7 31 17 28
23 -4 6 2 5 15 -1 17 -9 21 -9 19 1 -4 16 34 11 44 -5 4 -7 12 -13 18 -13 21
-3 22 -4 10 -19 -11 -13 -10 -14 5 -9 12 5 16 4 11 -4 -12 -19 39 -25 112 -13
37 6 92 12 122 13 30 1 49 3 43 5 -9 3 -7 12 7 31 11 15 22 42 24 59 3 18 7
37 10 42 6 9 70 5 136 -8z"/>
<path d="M666 1668 c3 -5 10 -6 15 -3 13 9 11 12 -6 12 -8 0 -12 -4 -9 -9z"/>
<path d="M1412 1458 c2 -6 10 -13 16 -14 7 -1 8 0 2 3 -5 2 -8 9 -4 14 3 5 0
9 -6 9 -7 0 -10 -5 -8 -12z"/>
<path d="M1623 1369 c3 -9 1 -21 -4 -26 -6 -6 -4 -10 5 -10 14 0 14 33 0 46
-4 3 -5 -1 -1 -10z"/>
<path d="M1583 1305 c0 -8 4 -12 9 -9 5 3 6 10 3 15 -9 13 -12 11 -12 -6z"/>
<path d="M640 1800 c-9 -6 -10 -10 -3 -10 6 0 15 5 18 10 8 12 4 12 -15 0z"/>
<path d="M1443 1635 c0 -7 6 -11 14 -8 7 3 13 6 13 8 0 2 -6 5 -13 8 -8 3 -14
-1 -14 -8z"/>
<path d="M1740 1480 c-9 -6 -10 -10 -3 -10 6 0 15 5 18 10 8 12 4 12 -15 0z"/>
<path d="M3089 1473 c-13 -16 -12 -17 4 -4 16 13 21 21 13 21 -2 0 -10 -8 -17
-17z"/>
<path d="M4586 1478 c3 -5 10 -6 15 -3 13 9 11 12 -6 12 -8 0 -12 -4 -9 -9z"/>
<path d="M5235 1480 c-3 -6 1 -7 9 -4 18 7 21 14 7 14 -6 0 -13 -4 -16 -10z"/>
<path d="M341 1421 c-89 -68 -160 -160 -190 -247 -21 -57 -23 -76 -17 -172 11
-202 13 -188 -43 -282 -84 -138 -82 -157 22 -176 37 -7 71 -15 76 -18 5 -3 7
-24 4 -45 -5 -37 -3 -41 21 -47 24 -6 26 -10 20 -39 -4 -25 -1 -36 14 -46 14
-11 21 -32 26 -83 14 -137 60 -172 177 -131 29 11 46 12 53 5 15 -15 44 -12
76 7 41 24 78 5 152 -78 l61 -68 46 40 c134 118 367 191 564 175 l72 -5 -45
14 c-25 8 -148 56 -273 106 l-229 92 -84 -7 c-77 -6 -84 -5 -84 12 0 10 7 27
15 38 21 27 19 31 -24 58 -30 19 -48 24 -74 19 -78 -12 -196 48 -233 119 -20
38 -20 118 0 156 51 99 178 146 298 110 84 -25 169 -135 155 -203 -4 -22 1
-29 29 -43 33 -15 35 -15 55 5 26 26 57 14 79 -31 25 -53 65 -64 253 -72 92
-4 167 -9 167 -11 0 -2 -5 -13 -10 -24 -10 -18 -7 -19 44 -19 47 0 56 3 61 21
6 17 13 20 38 15 18 -3 69 -8 115 -12 65 -5 85 -11 92 -25 25 -46 102 -24 99
29 -1 15 1 34 5 42 5 12 -3 18 -34 26 -40 11 -46 7 -42 -27 1 -3 -10 -12 -23
-19 -19 -10 -44 -11 -121 -2 -53 6 -98 12 -99 14 -8 8 32 108 43 108 33 0 222
-43 308 -71 l92 -29 -9 -33 c-14 -50 -12 -55 29 -66 20 -6 40 -11 43 -11 4 0
12 21 18 47 9 34 9 48 1 53 -34 21 -271 92 -371 112 l-116 23 5 68 c3 46 1 67
-7 67 -6 0 -11 -3 -12 -7 -5 -39 -10 -93 -10 -116 0 -15 -10 -47 -23 -72 -16
-30 -20 -46 -12 -49 7 -3 7 -5 -2 -5 -7 -1 -11 -5 -8 -10 8 -13 -19 -44 -42
-48 -12 -1 -24 2 -27 8 -8 12 14 41 25 34 4 -3 14 3 21 12 12 14 12 16 0 8
-11 -6 -13 -4 -8 9 4 10 7 20 7 22 0 3 3 3 8 1 4 -3 6 14 6 36 -1 23 4 51 12
62 7 12 12 46 10 85 -1 36 1 75 6 87 4 12 3 23 -2 25 -6 2 -14 18 -20 36 -8
29 -7 33 7 28 9 -4 5 5 -10 20 -30 29 -33 44 -15 62 8 8 9 12 1 12 -6 0 -13
-6 -16 -12 -2 -7 -11 2 -21 20 -9 18 -14 37 -11 43 4 5 1 8 -7 7 -7 -2 -12 2
-11 9 2 7 -4 10 -12 7 -10 -4 -18 3 -25 21 -6 17 -14 24 -22 19 -9 -5 -8 -2 1
9 12 15 12 17 -1 12 -17 -7 -88 49 -88 69 0 6 7 2 15 -8 8 -11 15 -15 15 -10
0 5 9 10 20 11 11 1 20 -2 20 -8 0 -9 -16 -13 -35 -9 -5 1 -6 -2 -2 -7 5 -4
16 -8 25 -8 9 0 16 -6 15 -12 -4 -19 5 -16 17 7 8 15 7 19 -2 16 -7 -1 -10 -1
-5 1 4 3 4 10 0 16 -3 7 3 3 15 -7 24 -21 29 -31 10 -20 -9 5 -9 3 1 -9 7 -9
17 -15 21 -12 4 3 14 -3 21 -13 13 -15 12 -16 -3 -3 -13 9 -18 10 -18 2 0 -7
-5 -9 -12 -5 -7 4 -8 3 -4 -5 4 -6 12 -9 17 -5 5 3 17 0 26 -8 14 -11 16 -11
8 1 -5 10 -4 12 4 7 9 -6 9 -11 0 -22 -10 -12 -10 -15 2 -12 10 2 14 -7 14
-29 1 -18 4 -36 9 -40 5 -4 5 2 2 15 -4 12 -5 22 -3 22 9 0 54 -76 62 -105 10
-37 10 -36 19 -58 5 -9 6 -29 4 -42 -3 -14 -1 -25 5 -25 5 0 4 -7 -3 -15 -11
-13 -10 -14 4 -9 11 4 15 2 11 -8 -8 -20 29 -33 139 -47 49 -7 93 -14 96 -16
4 -3 3 -28 -1 -57 -5 -28 -7 -53 -5 -55 1 -1 16 -6 33 -9 31 -6 32 -6 38 42 4
27 9 56 11 65 4 13 -10 20 -63 33 -53 13 -184 34 -224 36 -3 0 -9 27 -12 59
-22 211 -201 415 -435 496 -140 49 -394 44 -516 -10 l-31 -13 41 -1 c23 -1 72
-10 109 -22 44 -13 102 -21 168 -23 183 -6 322 -61 434 -172 68 -69 125 -174
141 -260 l9 -51 -106 -11 c-120 -13 -230 -39 -314 -76 -74 -33 -112 -27 -127
19 -6 18 -29 59 -52 91 -34 48 -38 61 -29 76 7 11 9 23 6 28 -8 13 89 56 215
96 91 28 107 30 121 18 22 -20 53 -17 73 5 39 42 -21 98 -70 66 -13 -8 -24
-21 -24 -28 0 -7 -36 -21 -84 -34 -47 -12 -119 -38 -162 -58 -43 -20 -85 -33
-95 -30 -10 4 -27 1 -38 -5 -17 -9 -37 1 -134 65 -105 71 -113 78 -109 105 3
21 13 32 44 46 23 10 56 17 74 15 35 -3 56 20 46 49 -12 36 -65 41 -83 8 -7
-13 -12 -25 -12 -28 1 -12 -82 -50 -98 -45 -10 4 -28 1 -40 -5 -18 -10 -26 -6
-65 35 -47 48 -57 69 -77 146 l-12 46 -74 -56z m627 13 c15 -5 15 -4 2 6 -41
32 228 -20 307 -59 23 -12 47 -21 53 -21 6 0 8 -4 5 -10 -3 -5 2 -10 12 -10
21 0 43 -18 43 -35 0 -5 -5 -3 -10 5 -8 12 -10 12 -10 1 0 -11 -4 -10 -19 3
-14 13 -21 14 -27 5 -4 -8 -3 -10 4 -5 8 5 10 1 5 -10 -6 -16 -7 -16 -18 0 -7
9 -16 16 -20 16 -4 0 -21 6 -38 14 -103 47 -174 61 -307 58 -35 0 -69 2 -75 6
-5 4 -18 8 -29 9 -10 2 -26 8 -35 14 -14 9 -14 10 2 5 9 -3 17 -1 17 5 0 6 3
8 8 6 4 -3 25 -1 47 3 22 4 46 6 53 4 6 -2 20 -7 30 -10z m-566 -39 c-2 -11 1
-14 9 -9 8 4 10 3 5 -4 -8 -13 8 -44 42 -81 12 -14 22 -29 22 -34 0 -4 5 -5
10 -2 6 4 10 3 9 -2 -1 -4 -1 -17 0 -28 1 -17 3 -18 11 -5 8 13 11 13 19 1 5
-8 16 -11 25 -8 9 4 16 1 16 -5 0 -7 4 -7 14 1 10 8 16 9 21 1 3 -5 0 -10 -7
-11 -10 0 -10 -2 0 -6 6 -2 10 -8 7 -13 -3 -4 15 -24 40 -45 25 -20 45 -33 45
-29 0 4 9 -1 20 -11 11 -10 17 -22 13 -28 -3 -5 -2 -7 3 -4 14 8 35 -7 38 -29
2 -13 10 -18 26 -16 12 1 28 -2 34 -7 6 -5 26 -8 44 -6 27 2 32 0 28 -14 -5
-12 -2 -11 9 3 12 16 15 17 15 4 0 -19 -24 -40 -35 -30 -5 4 -5 1 -1 -6 4 -7
11 -10 16 -7 11 7 24 -31 15 -45 -3 -5 0 -7 9 -4 9 3 17 -3 21 -18 4 -13 16
-35 27 -50 11 -16 16 -33 12 -39 -4 -8 -3 -9 4 -5 7 4 12 1 12 -7 0 -8 15 -29
34 -48 28 -29 30 -35 15 -36 -11 -1 -19 2 -19 7 0 4 -8 7 -17 5 -10 -1 -23 2
-30 7 -7 6 -14 5 -19 -3 -5 -8 -3 -9 6 -4 8 5 11 3 8 -5 -4 -13 -47 -22 -49
-11 -1 3 -3 22 -5 41 -10 97 -83 181 -177 204 -15 4 -25 11 -22 16 4 6 -6 5
-20 -2 -22 -10 -28 -9 -36 3 -6 9 -12 10 -16 4 -5 -5 -15 -11 -23 -12 -33 -4
-89 -21 -118 -36 -23 -11 -34 -12 -44 -3 -11 9 -11 8 0 -3 14 -18 16 -35 2
-26 -5 3 -10 1 -10 -5 0 -6 -4 -8 -10 -5 -6 4 -7 -1 -3 -11 4 -12 3 -15 -5
-10 -8 5 -12 0 -12 -14 0 -13 -4 -19 -11 -14 -8 4 -9 -1 -4 -16 5 -14 3 -20
-3 -16 -6 4 -10 -18 -10 -59 0 -36 4 -65 8 -65 5 0 7 -11 5 -25 -1 -14 0 -24
2 -21 7 6 69 -66 66 -76 -2 -4 2 -8 7 -8 6 0 10 4 10 10 0 5 9 2 20 -7 23 -20
35 -23 120 -30 36 -3 72 -11 81 -19 9 -8 18 -12 21 -9 2 3 5 -2 5 -10 0 -9 -6
-14 -13 -11 -7 3 -11 -2 -9 -12 2 -9 4 -22 4 -28 2 -19 36 -51 50 -46 8 3 11
0 7 -6 -4 -7 3 -8 26 -1 18 5 41 6 52 3 10 -3 16 -2 13 3 -6 10 45 6 73 -4 8
-3 20 -7 25 -8 32 -7 110 -52 108 -62 -2 -7 4 -10 13 -6 13 5 13 7 2 14 -7 5
-9 9 -5 9 4 0 18 -7 30 -15 13 -8 32 -16 43 -18 12 -1 33 -11 48 -20 14 -10
26 -13 26 -8 0 5 14 3 30 -5 34 -18 37 -23 13 -22 -64 1 -164 -21 -248 -54
-51 -20 -62 -26 -122 -59 -20 -11 -31 -14 -27 -7 4 7 -4 2 -18 -12 -13 -14
-23 -28 -21 -32 2 -4 -4 -5 -13 -1 -13 5 -15 3 -9 -7 6 -10 4 -12 -8 -7 -9 3
-16 3 -16 -1 3 -19 -3 -22 -22 -12 -11 7 -18 14 -15 17 3 4 0 13 -7 21 -8 11
-8 14 0 9 6 -4 14 -3 18 2 3 6 -4 8 -16 6 -25 -5 -53 20 -43 37 5 8 0 7 -11
-2 -10 -8 -16 -10 -12 -3 8 13 -40 43 -68 43 -9 0 -14 4 -10 9 3 5 1 12 -4 15
-5 4 -13 1 -17 -5 -5 -8 -3 -9 6 -4 9 5 11 4 6 -4 -4 -6 -12 -9 -17 -6 -5 4
-12 -1 -15 -9 -3 -9 -10 -16 -15 -16 -13 0 -6 23 11 38 13 11 11 11 -7 2 -13
-6 -22 -14 -22 -18 4 -26 -2 -30 -27 -17 -22 11 -31 11 -48 1 -27 -16 -136
-21 -136 -6 0 6 -4 9 -8 6 -4 -2 -8 7 -7 22 0 15 -4 30 -9 34 -7 5 -7 21 1 48
8 31 8 40 -1 37 -7 -3 -13 5 -13 16 -1 11 -9 25 -18 30 -13 7 -15 17 -10 43 5
29 1 38 -25 64 -27 27 -29 34 -8 31 9 -1 4 27 -7 36 -4 5 -4 1 0 -7 5 -8 -4
-3 -20 12 -15 16 -33 28 -39 29 -6 0 -2 4 8 8 11 4 -9 7 -47 6 -54 -1 -64 1
-59 13 3 10 1 13 -6 8 -15 -9 -6 16 26 72 22 39 33 47 55 43 5 -1 6 3 2 9 -3
6 -11 7 -17 4 -6 -4 -6 1 1 14 6 11 16 22 23 24 14 5 17 131 7 263 -6 74 16
172 37 168 7 -1 9 8 6 22 -2 15 0 25 7 25 6 0 11 5 11 11 0 20 62 89 77 87 9
-2 17 5 18 14 4 23 55 66 75 63 8 -1 14 -10 12 -20z m372 -84 c3 -5 -6 -8 -20
-8 -19 0 -22 2 -13 8 18 11 26 11 33 0z m562 -148 c-3 -20 -13 -25 -36 -18
-15 5 -18 10 -11 19 13 16 49 15 47 -1z m-544 -118 c0 -5 -5 -10 -11 -11 -8
-2 -7 -1 0 3 8 4 7 8 -2 15 -11 8 -11 9 -1 6 8 -2 14 -8 14 -13z m772 -237
c-8 -79 -3 -75 -90 -66 -44 5 -145 7 -227 6 -81 -2 -147 -1 -147 2 0 3 39 20
88 38 100 37 217 59 359 70 21 2 22 -1 17 -50z m353 -42 c0 -7 -9 -19 -19 -25
-18 -11 -18 -11 -2 14 19 29 21 30 21 11z m-840 -33 c-8 -7 -37 9 -31 19 3 5
12 4 20 -3 8 -6 13 -14 11 -16z m464 -20 c4 -4 -4 -34 -18 -66 -19 -42 -30
-56 -42 -53 -9 3 -88 8 -176 12 -172 7 -207 16 -227 59 -9 21 -8 29 8 46 19
21 23 22 233 16 118 -3 218 -10 222 -14z m359 -128 c0 -2 -12 -11 -27 -20
l-28 -15 28 6 c27 6 38 -8 15 -22 -7 -5 -8 -3 -3 6 5 8 3 11 -6 8 -8 -3 -13
-12 -11 -19 1 -8 -4 -6 -12 5 -12 14 -12 22 -3 37 10 16 47 28 47 14z m211
-38 c-4 -11 -16 -21 -25 -23 -12 -2 -16 2 -12 12 3 8 1 14 -5 14 -6 0 -8 4 -5
9 3 5 17 9 30 9 20 0 23 -4 17 -21z"/>
<path d="M1285 1350 c-3 -6 1 -7 9 -4 18 7 21 14 7 14 -6 0 -13 -4 -16 -10z"/>
<path d="M936 758 c3 -5 10 -6 15 -3 13 9 11 12 -6 12 -8 0 -12 -4 -9 -9z"/>
<path d="M990 756 c0 -2 8 -10 18 -17 15 -13 16 -12 3 4 -13 16 -21 21 -21 13z"/>
<path d="M692 201 c-11 -7 -11 -9 0 -14 9 -3 15 1 15 9 0 8 -1 14 -1 14 -1 0
-7 -4 -14 -9z"/>
<path d="M440 170 c-9 -6 -10 -10 -3 -10 6 0 15 5 18 10 8 12 4 12 -15 0z"/>
<path d="M820 100 c-8 -5 -10 -10 -5 -10 6 0 17 5 25 10 8 5 11 10 5 10 -5 0
-17 -5 -25 -10z"/>
<path d="M1300 1160 c0 -6 7 -10 15 -10 8 0 15 2 15 4 0 2 -7 6 -15 10 -8 3
-15 1 -15 -4z"/>
<path d="M5745 1469 c-4 -6 -5 -12 -2 -15 2 -3 7 2 10 11 7 17 1 20 -8 4z"/>
<path d="M5249 1453 c-13 -16 -12 -17 4 -4 16 13 21 21 13 21 -2 0 -10 -8 -17
-17z"/>
<path d="M3915 1451 c-3 -5 -2 -12 3 -15 5 -3 9 1 9 9 0 17 -3 19 -12 6z"/>
<path d="M5271 1447 c-8 -10 -7 -14 2 -14 8 0 14 6 14 14 0 7 -1 13 -2 13 -2
0 -8 -6 -14 -13z"/>
<path d="M5970 1455 c0 -5 5 -17 10 -25 5 -8 10 -10 10 -5 0 6 -5 17 -10 25
-5 8 -10 11 -10 5z"/>
<path d="M3718 1440 c-75 -13 -112 -61 -92 -119 9 -25 28 -37 119 -78 45 -20
54 -42 29 -68 -18 -17 -74 -17 -132 1 -21 6 -23 4 -20 -22 3 -26 8 -30 52 -38
64 -11 150 7 171 37 8 12 15 38 15 57 0 45 -24 69 -102 99 -31 13 -59 30 -63
39 -14 37 47 57 118 39 24 -7 27 -5 27 18 0 19 -6 26 -27 30 -50 11 -58 11
-95 5z m-44 -69 c-13 -9 -13 -41 0 -38 6 1 10 -6 8 -17 -2 -12 1 -16 9 -10 8
5 10 3 4 -5 -5 -9 -12 -8 -24 6 -18 19 -35 76 -20 67 5 -3 9 0 9 6 0 6 5 8 11
4 6 -3 7 -9 3 -13z m74 -87 c12 -8 32 -17 43 -19 25 -5 48 -34 44 -55 -6 -27
-24 -65 -24 -52 -1 8 -6 10 -13 6 -8 -5 -7 -1 2 10 17 22 26 71 10 61 -5 -3
-10 -2 -10 3 0 9 -50 37 -62 34 -5 -1 -8 2 -8 8 0 5 -7 6 -17 3 -11 -4 -14 -3
-9 5 9 16 17 15 44 -4z"/>
<path d="M4032 1438 c-59 -10 -97 -40 -118 -93 -20 -54 -15 -126 13 -163 40
-53 70 -67 143 -67 54 0 75 4 96 21 49 36 67 70 71 131 8 123 -77 194 -205
171z m-39 -50 c-24 -12 -60 -106 -50 -133 4 -8 2 -15 -4 -15 -17 0 -8 109 10
120 9 5 12 10 6 10 -13 1 37 29 50 29 6 0 0 -5 -12 -11z m139 -16 c26 -22 41
-77 33 -122 -8 -48 -53 -90 -97 -90 -38 0 -87 48 -90 87 -4 85 9 119 55 138
35 15 73 10 99 -13z m48 3 c0 -8 4 -15 9 -15 16 0 20 -28 5 -34 -8 -3 -12 -1
-9 4 3 5 -2 21 -11 35 -10 15 -12 25 -5 25 6 0 11 -7 11 -15z m21 -135 c-7
-20 -6 -30 1 -32 7 -3 -2 -14 -19 -26 l-31 -22 19 39 c10 22 19 55 19 74 0 18
3 37 8 41 11 12 14 -43 3 -74z m-221 -56 c0 -1 -9 0 -20 3 -11 3 -17 9 -14 14
3 5 0 9 -6 9 -6 0 -8 5 -5 10 4 7 14 2 26 -11 10 -12 19 -23 19 -25z"/>
<path d="M4040 1346 c0 -2 7 -7 16 -10 8 -3 12 -2 9 4 -6 10 -25 14 -25 6z"/>
<path d="M4020 1230 c-9 -6 -10 -10 -3 -10 6 0 15 5 18 10 8 12 4 12 -15 0z"/>
<path d="M4101 1217 c-8 -10 -7 -14 2 -14 8 0 14 6 14 14 0 7 -1 13 -2 13 -2
0 -8 -6 -14 -13z"/>
<path d="M2180 1280 l0 -160 115 0 115 0 0 25 c0 25 -1 25 -80 25 l-80 0 0 45
0 45 70 0 c69 0 70 1 70 26 0 25 -1 26 -70 22 l-70 -3 0 43 0 42 74 0 c71 0
74 1 78 25 l5 25 -113 0 -114 0 0 -160z m56 115 c-24 -18 -21 -80 4 -98 17
-12 18 -16 6 -20 -22 -9 -31 -83 -13 -110 13 -21 13 -22 -12 -23 -14 -1 -21 0
-16 2 6 3 9 55 7 138 l-4 135 23 -6 c20 -6 20 -7 5 -18z"/>
<path d="M2460 1280 l0 -160 33 0 32 0 -2 122 -3 123 28 -46 c15 -25 51 -80
81 -122 52 -73 57 -77 93 -77 l38 0 0 160 0 160 -36 0 -36 0 4 -115 c1 -63 -1
-116 -6 -118 -4 -1 -1 -9 8 -16 14 -12 16 -12 10 3 -3 9 -2 16 3 16 5 0 10 19
11 42 1 23 5 44 8 47 3 3 4 -30 2 -73 -2 -57 -7 -81 -17 -84 -8 -3 -11 0 -7 7
4 6 1 11 -8 11 -8 0 -18 5 -22 12 -5 7 -2 9 7 4 8 -4 7 -2 -2 6 -12 10 -13 17
-6 29 8 13 -6 39 -64 122 -72 103 -75 107 -111 107 l-38 0 0 -160z m70 118 c0
-5 -4 -7 -9 -4 -5 3 -15 -2 -22 -11 -12 -15 -12 -16 1 -8 25 16 40 14 50 -6
10 -18 1 -26 -14 -12 -12 13 -38 12 -33 -1 3 -7 1 -19 -3 -27 -7 -11 -9 -9 -9
6 0 11 -2 31 -4 45 -2 14 -2 28 0 32 4 9 43 -3 43 -14z m197 -60 c-3 -7 -5 -2
-5 12 0 14 2 19 5 13 2 -7 2 -19 0 -25z m-127 -28 c6 -11 8 -20 6 -20 -3 0
-10 9 -16 20 -6 11 -8 20 -6 20 3 0 10 -9 16 -20z m32 -44 c7 4 8 2 4 -4 -11
-18 -26 -14 -25 6 0 10 3 12 6 4 2 -6 10 -9 15 -6z m-135 -38 c-3 -8 -6 -5 -6
6 -1 11 2 17 5 13 3 -3 4 -12 1 -19z m158 1 c11 -16 1 -19 -13 -3 -7 8 -8 14
-3 14 5 0 13 -5 16 -11z"/>
<path d="M2810 1415 c0 -25 1 -25 86 -25 47 0 83 4 80 8 -3 5 8 8 25 8 16 0
29 -4 29 -8 0 -5 -6 -8 -12 -7 -7 1 -18 1 -25 0 -19 -2 -183 -225 -183 -249 0
-22 3 -22 130 -22 l130 0 0 25 c0 24 -2 24 -86 27 l-86 3 80 105 c43 58 81
117 84 133 l5 27 -128 0 -129 0 0 -25z m207 -41 c-3 -3 -12 -4 -19 -1 -8 3 -5
6 6 6 11 1 17 -2 13 -5z m-15 -21 c-7 -3 -18 -16 -23 -30 -5 -14 -12 -23 -16
-20 -8 9 25 57 40 56 9 0 8 -2 -1 -6z m-48 -75 c-3 -5 -10 -6 -15 -3 -5 4 -9
-1 -9 -10 0 -8 -7 -18 -15 -21 -8 -4 -13 -9 -10 -13 2 -4 -3 -8 -12 -8 -14 0
-13 3 3 16 10 9 25 28 33 44 10 19 17 24 22 15 4 -7 5 -16 3 -20z m-72 -86
c-7 -2 -12 -10 -12 -18 0 -9 5 -12 12 -8 6 4 8 3 4 -4 -3 -5 0 -13 6 -15 7 -3
-2 -4 -19 -4 -30 2 -49 17 -21 17 6 0 8 3 5 6 -11 11 13 45 26 37 8 -5 8 -8
-1 -11z"/>
<path d="M3169 1417 c-92 -61 -92 -226 0 -280 52 -30 128 -33 180 -5 59 31 81
63 87 129 7 69 -24 133 -76 161 -52 27 -147 25 -191 -5z m200 -33 c17 -14 29
-30 26 -34 -3 -5 -1 -11 5 -15 14 -9 13 -105 -1 -105 -6 0 -9 -6 -6 -13 6 -17
-29 -64 -40 -54 -4 5 0 14 10 21 9 7 17 23 17 35 0 11 3 21 8 21 9 0 7 59 -3
83 -4 10 -5 20 -2 24 7 6 -7 21 -43 46 -13 9 -19 17 -13 17 6 0 25 -12 42 -26z
m-191 -12 c-7 -10 -17 -20 -23 -24 -5 -4 -6 -8 -2 -8 5 0 5 -6 0 -12 -13 -21
-12 -69 3 -104 20 -48 17 -61 -8 -29 -21 28 -33 111 -16 121 5 3 5 10 2 16 -4
6 1 17 11 25 11 7 15 13 11 13 -5 0 -3 7 4 15 17 20 34 8 18 -13z m127 14 c42
-18 56 -44 57 -108 0 -89 -65 -140 -137 -105 -81 39 -67 199 20 220 11 3 21 5
23 6 1 0 18 -5 37 -13z"/>
<path d="M3136 1227 c3 -10 9 -15 12 -12 3 3 0 11 -7 18 -10 9 -11 8 -5 -6z"/>
<path d="M3294 1239 c-4 -7 -3 -9 4 -5 5 3 13 0 15 -6 4 -9 6 -10 6 -1 1 17
-16 25 -25 12z"/>
<path d="M4290 1280 l0 -160 110 0 110 0 0 25 c0 24 -2 25 -73 25 l-72 0 0
135 0 135 -37 0 -38 0 0 -160z m45 -1 c1 -94 4 -122 15 -129 13 -8 13 -10 -1
-10 -9 0 -20 7 -23 16 -9 23 -7 259 2 250 4 -4 7 -62 7 -127z"/>
<path d="M4530 1316 c0 -111 2 -126 22 -151 41 -53 115 -68 187 -39 65 26 75
51 79 192 l4 122 -36 0 -36 0 0 -115 c0 -110 -1 -117 -25 -140 -30 -30 -64
-32 -99 -4 -25 20 -26 23 -26 140 l0 119 -35 0 -35 0 0 -124z m41 -19 c2 -59
6 -107 11 -107 4 0 8 -7 8 -16 0 -9 5 -12 12 -8 7 5 8 3 3 -6 -12 -20 -48 28
-42 57 2 12 1 24 -4 25 -4 2 -5 40 -2 86 3 45 7 81 9 79 1 -1 4 -51 5 -110z
m216 31 c-2 -18 -4 -6 -4 27 0 33 2 48 4 33 2 -15 2 -42 0 -60z m1 -82 c-1
-14 -5 -23 -9 -20 -7 4 0 44 7 44 2 0 3 -11 2 -24z m-11 -48 c0 -7 -11 -24
-24 -38 l-24 -25 21 38 c24 41 27 43 27 25z"/>
<path d="M4840 1415 c0 -23 3 -25 53 -25 l52 0 -3 -135 -3 -135 35 0 36 0 0
135 0 135 50 0 c47 0 50 2 50 25 l0 25 -135 0 -135 0 0 -25z m130 -17 c0 -10
3 -9 9 1 6 9 11 10 15 2 4 -6 2 -11 -4 -11 -6 0 -8 -4 -5 -10 3 -5 2 -10 -2
-10 -5 0 -14 9 -21 20 -7 12 -8 20 -2 20 5 0 10 -6 10 -12z m14 -53 c-4 -8 -8
-15 -10 -15 -2 0 -4 7 -4 15 0 8 4 15 10 15 5 0 7 -7 4 -15z m0 -124 c2 -45 0
-81 -4 -81 -4 0 -8 39 -9 87 -1 48 1 85 4 81 4 -3 8 -43 9 -87z"/>
<path d="M5140 1280 l0 -160 35 0 35 0 0 160 0 160 -35 0 -35 0 0 -160z m43
-4 c1 -69 -1 -126 -4 -126 -4 0 -8 59 -8 132 -1 73 1 130 4 126 3 -3 7 -63 8
-132z"/>
<path d="M5340 1421 c-19 -10 -45 -36 -58 -57 -19 -32 -22 -49 -18 -98 7 -90
54 -141 138 -152 63 -9 130 16 164 61 57 76 33 205 -46 247 -46 24 -134 24
-180 -1z m154 -51 c37 -36 38 -140 1 -180 -10 -11 -32 -22 -50 -26 -64 -12
-107 35 -107 115 1 62 15 89 55 106 37 16 74 10 101 -15z m72 -93 c2 -57 -1
-66 -12 -56 -15 12 -20 34 -6 25 16 -10 1 79 -19 112 -25 44 -24 46 9 14 24
-24 27 -35 28 -95z m-230 97 c-9 -8 -16 -24 -16 -34 0 -10 -4 -21 -9 -25 -11
-6 -8 -71 3 -82 3 -3 6 -13 6 -21 0 -9 7 -24 17 -34 9 -10 11 -18 5 -18 -17 0
-52 79 -52 116 0 18 5 45 11 61 6 15 10 30 9 32 -2 5 23 21 33 21 5 0 1 -7 -7
-16z m210 -170 c-3 -9 -6 -18 -6 -20 0 -2 -4 -4 -9 -4 -5 0 -7 9 -4 20 3 11
10 20 15 20 6 0 7 -7 4 -16z m-155 -62 c-7 -2 -18 1 -23 6 -8 8 -4 9 13 5 13
-4 18 -8 10 -11z"/>
<path d="M5410 1246 c0 -2 8 -10 18 -17 15 -13 16 -12 3 4 -13 16 -21 21 -21
13z"/>
<path d="M5650 1280 l0 -160 30 0 30 0 0 116 0 117 26 -39 c125 -185 133 -194
175 -194 l39 0 0 160 0 160 -35 0 -35 0 0 -104 c0 -57 3 -112 7 -121 5 -15 7
-15 18 4 10 19 11 16 11 -25 -1 -29 -6 -49 -13 -52 -7 -2 -13 1 -13 8 0 6 -6
8 -12 4 -7 -4 -10 -4 -6 1 5 5 -4 24 -18 44 -22 31 -23 33 -2 11 24 -26 41
-31 55 -16 4 5 3 6 -4 3 -7 -4 -32 25 -66 75 -108 162 -113 168 -152 168 l-35
0 0 -160z m50 123 c0 4 6 2 14 -5 8 -7 13 -17 13 -23 -1 -5 5 -9 13 -7 8 2 12
0 8 -4 -4 -4 0 -13 10 -21 16 -13 15 -13 -3 -4 -11 5 -31 19 -44 32 l-23 22 7
-22 c3 -11 2 -21 -2 -21 -5 0 -9 16 -10 36 0 24 2 32 8 23 5 -8 9 -10 9 -6z
m217 -95 c-3 -7 -5 -2 -5 12 0 14 2 19 5 13 2 -7 2 -19 0 -25z m-122 -26 c-3
-3 -11 0 -18 7 -9 10 -8 11 6 5 10 -3 15 -9 12 -12z m125 -14 c0 -18 -2 -20
-9 -8 -6 8 -7 18 -5 22 9 14 14 9 14 -14z m-100 -13 c7 -9 8 -15 2 -15 -5 0
-12 7 -16 15 -3 8 -4 15 -2 15 2 0 9 -7 16 -15z"/>
<path d="M1733 1415 c0 -8 4 -12 9 -9 5 3 6 10 3 15 -9 13 -12 11 -12 -6z"/>
<path d="M1705 1411 c-3 -5 -2 -12 3 -15 5 -3 9 1 9 9 0 17 -3 19 -12 6z"/>
<path d="M2610 1396 c0 -2 8 -10 18 -17 15 -13 16 -12 3 4 -13 16 -21 21 -21
13z"/>
<path d="M560 1315 c-7 -8 -17 -12 -23 -8 -6 4 -7 1 -3 -6 6 -9 13 -8 27 5 10
9 19 19 19 21 0 7 -8 2 -20 -12z"/>
<path d="M1966 1237 c3 -10 9 -15 12 -12 3 3 0 11 -7 18 -10 9 -11 8 -5 -6z"/>
<path d="M105 1219 c-4 -6 -5 -12 -2 -15 2 -3 7 2 10 11 7 17 1 20 -8 4z"/>
<path d="M3650 1216 c7 -7 13 -7 20 0 6 6 3 10 -10 10 -13 0 -16 -4 -10 -10z"/>
<path d="M699 1183 c-13 -16 -12 -17 4 -4 9 7 17 15 17 17 0 8 -8 3 -21 -13z"/>
<path d="M1959 1023 c-13 -16 -12 -17 4 -4 16 13 21 21 13 21 -2 0 -10 -8 -17
-17z"/>
<path d="M4606 998 c3 -5 10 -6 15 -3 13 9 11 12 -6 12 -8 0 -12 -4 -9 -9z"/>
<path d="M3173 930 c-85 -51 -30 -160 80 -160 20 0 48 4 62 10 23 9 26 15 23
46 -3 34 -5 37 -40 40 -27 2 -38 -1 -38 -11 0 -8 7 -11 20 -8 16 4 20 0 20
-20 0 -52 -100 -43 -121 10 -21 57 29 100 103 89 37 -6 61 7 32 18 -34 13
-110 6 -141 -14z"/>
<path d="M3420 863 c0 -82 2 -89 20 -90 17 -2 20 4 20 38 0 34 3 39 23 39 14
0 31 -14 49 -38 17 -25 35 -38 53 -40 l26 -2 -30 37 -30 37 24 22 c30 28 31
36 4 60 -15 13 -40 20 -90 22 l-69 4 0 -89z m114 57 c51 -19 27 -50 -40 -50
-31 0 -34 3 -34 30 0 25 4 30 24 30 14 0 36 -4 50 -10z"/>
<path d="M3714 940 c-46 -18 -67 -77 -43 -122 12 -23 67 -48 105 -48 42 0 91
29 104 61 16 38 -2 84 -41 104 -31 16 -92 19 -125 5z m111 -35 c47 -46 18
-109 -50 -109 -66 0 -97 64 -53 111 29 31 72 30 103 -2z"/>
<path d="M3960 881 c0 -94 30 -122 117 -108 59 10 73 30 73 109 0 61 -2 68
-20 68 -18 0 -20 -7 -20 -70 0 -67 -1 -71 -26 -81 -28 -10 -64 -3 -76 15 -4 6
-8 39 -8 74 0 55 -2 62 -20 62 -18 0 -20 -7 -20 -69z"/>
<path d="M4235 860 c0 -85 1 -91 20 -88 16 2 19 9 17 36 l-3 32 51 0 c41 0 56
5 76 25 21 21 23 28 14 45 -15 28 -50 40 -118 40 l-57 0 0 -90z m103 64 c63
-13 40 -64 -28 -64 -37 0 -38 1 -38 35 0 38 7 41 66 29z"/>
<path d="M4504 940 c-52 -21 -31 -73 34 -84 21 -3 46 -12 57 -20 39 -29 -20
-51 -87 -33 -21 5 -28 4 -28 -7 0 -26 88 -35 134 -14 31 13 42 43 26 64 -7 8
-37 21 -66 30 -61 17 -70 26 -49 44 10 8 31 11 61 6 34 -4 45 -3 42 7 -5 14
-94 20 -124 7z"/>
<path d="M3346 907 c3 -10 9 -15 12 -12 3 3 0 11 -7 18 -10 9 -11 8 -5 -6z"/>
<path d="M588 890 c-93 -28 -144 -131 -104 -208 34 -65 117 -108 193 -99 37 4
54 0 83 -18 126 -79 324 -160 484 -197 106 -24 388 -37 446 -20 32 9 30 10
-33 11 -60 1 -68 3 -64 19 3 9 8 38 12 64 l6 47 -118 1 c-202 0 -356 37 -549
132 l-102 50 5 38 c7 52 -1 82 -34 121 -49 58 -145 83 -225 59z m123 -24 c4 2
10 0 14 -6 4 -6 11 -8 16 -5 5 4 9 -2 9 -12 0 -15 2 -16 10 -3 9 13 14 7 11
-12 0 -5 4 -8 10 -8 6 0 8 -10 5 -22 -3 -13 -3 -17 0 -10 8 18 27 15 20 -4 -3
-8 -2 -13 3 -10 5 3 12 -2 16 -11 3 -10 2 -19 -3 -21 -6 -2 -8 -13 -5 -25 4
-18 3 -19 -6 -7 -7 9 -11 10 -11 3 0 -6 4 -14 10 -18 5 -3 6 -13 3 -22 -5 -12
-3 -14 7 -8 10 6 12 4 7 -8 -7 -17 17 -42 32 -33 5 4 13 1 17 -5 5 -8 3 -9 -6
-4 -9 5 -11 4 -6 -3 4 -7 2 -12 -5 -12 -7 0 -9 -3 -6 -7 4 -3 15 2 26 11 18
17 21 16 59 -8 58 -36 130 -69 140 -62 5 3 23 -4 41 -15 18 -11 36 -17 41 -14
5 3 27 -1 51 -9 23 -8 48 -12 57 -9 8 4 13 2 9 -3 -6 -11 0 -12 85 -15 31 -2
55 -5 53 -8 -2 -4 32 -5 75 -4 44 2 81 -1 83 -5 2 -4 2 -26 0 -48 l-5 -41 -91
2 c-51 2 -123 11 -160 19 -38 9 -74 13 -79 10 -7 -5 -8 -2 -3 6 6 9 2 10 -15
5 -14 -5 -20 -3 -16 3 3 6 -1 8 -12 5 -10 -2 -31 1 -47 8 -17 7 -34 13 -40 15
-82 24 -126 42 -114 47 9 3 6 6 -8 7 -50 5 -85 19 -77 32 5 7 1 9 -9 5 -10 -3
-17 -2 -17 3 0 5 -11 12 -25 16 -14 3 -25 10 -25 16 0 5 -8 8 -17 6 -12 -2
-18 3 -17 15 2 15 -1 16 -14 5 -9 -8 -13 -8 -9 -2 4 7 0 15 -9 18 -10 4 -13 2
-8 -7 5 -8 2 -8 -9 2 -9 7 -14 18 -10 25 4 6 -1 5 -10 -2 -9 -8 -20 -11 -26
-8 -5 3 -21 2 -35 -4 -17 -6 -27 -6 -32 1 -3 6 -13 8 -21 5 -9 -4 -11 -2 -7 6
5 8 2 9 -10 5 -10 -4 -23 1 -33 13 -10 11 -22 20 -28 20 -14 0 -35 48 -35 80
0 14 6 32 13 39 10 11 9 13 -1 7 -10 -6 -10 -2 0 18 6 15 13 24 16 21 3 -2 13
5 23 17 11 11 19 18 19 15 0 -4 15 -1 33 6 21 9 44 11 66 6 19 -4 38 -6 42 -3z
m139 -226 c0 -5 -2 -10 -4 -10 -3 0 -8 5 -11 10 -3 6 -1 10 4 10 6 0 11 -4 11
-10z"/>
<path d="M648 852 c-16 -2 -28 -9 -28 -15 0 -7 -4 -6 -10 3 -6 9 -10 11 -10 3
0 -7 -7 -10 -17 -6 -11 4 -14 3 -9 -6 8 -12 -27 -55 -36 -45 -5 5 1 -55 8 -76
6 -18 2 -26 -9 -22 -5 1 -6 -2 -2 -7 3 -6 12 -8 19 -5 7 3 16 -2 20 -11 3 -9
10 -14 15 -11 5 3 11 -1 14 -8 4 -10 16 -13 37 -11 18 3 28 0 25 -5 -4 -6 -1
-10 4 -10 6 0 11 5 11 11 0 6 8 8 18 4 18 -5 73 28 71 43 -3 20 2 43 9 38 13
-8 7 41 -7 58 -8 9 -10 16 -5 17 5 0 -2 5 -15 10 -15 6 -21 14 -17 25 3 8 2
13 -2 10 -5 -3 -19 0 -33 7 -13 7 -36 11 -51 9z m62 -47 c73 -38 36 -145 -50
-145 -35 0 -79 29 -86 57 -20 76 60 128 136 88z m45 -135 c-3 -5 -16 -15 -28
-21 -22 -12 -22 -12 -3 10 19 21 43 30 31 11z"/>
<path d="M790 639 c0 -5 5 -7 10 -4 6 3 10 8 10 11 0 2 -4 4 -10 4 -5 0 -10
-5 -10 -11z"/>
<path d="M5470 896 c0 -2 7 -7 16 -10 8 -3 12 -2 9 4 -6 10 -25 14 -25 6z"/>
<path d="M1590 870 c0 -5 5 -10 11 -10 5 0 7 5 4 10 -3 6 -8 10 -11 10 -2 0
-4 -4 -4 -10z"/>
<path d="M90 851 c0 -6 4 -13 10 -16 6 -3 7 1 4 9 -7 18 -14 21 -14 7z"/>
<path d="M2330 851 c0 -6 4 -13 10 -16 6 -3 7 1 4 9 -7 18 -14 21 -14 7z"/>
<path d="M2370 850 c0 -6 120 -10 340 -10 220 0 340 4 340 10 0 6 -120 10
-340 10 -220 0 -340 -4 -340 -10z"/>
<path d="M4740 850 c0 -6 128 -10 365 -10 237 0 365 4 365 10 0 6 -128 10
-365 10 -237 0 -365 -4 -365 -10z"/>
<path d="M1984 836 c1 -8 5 -18 8 -22 4 -3 5 1 4 10 -1 8 -5 18 -8 22 -4 3 -5
-1 -4 -10z"/>
<path d="M1716 806 c-10 -49 -8 -52 39 -55 42 -2 45 0 45 23 0 13 3 31 6 39 4
12 -5 16 -40 18 -42 4 -45 3 -50 -25z m50 -19 c3 -23 -3 -21 -17 4 -8 17 -8
20 2 17 7 -2 13 -12 15 -21z"/>
<path d="M2380 790 c-9 -6 -10 -10 -3 -10 6 0 15 5 18 10 8 12 4 12 -15 0z"/>
<path d="M1698 663 c-3 -4 -8 -20 -12 -34 -5 -22 -2 -28 17 -33 49 -13 64 -7
71 26 3 17 5 32 4 34 -9 8 -77 14 -80 7z m52 -40 c0 -10 -4 -14 -8 -8 -4 6
-11 13 -16 18 -5 4 -2 7 7 7 10 0 17 -8 17 -17z"/>
<path d="M1023 645 c0 -8 4 -12 9 -9 5 3 6 10 3 15 -9 13 -12 11 -12 -6z"/>
<path d="M1549 583 c-13 -16 -12 -17 4 -4 16 13 21 21 13 21 -2 0 -10 -8 -17
-17z"/>
<path d="M1677 454 c-12 -70 -12 -70 58 -80 l64 -10 8 51 c10 57 7 60 -75 71
l-49 6 -6 -38z m83 2 c18 -4 25 -12 26 -31 1 -13 -2 -23 -6 -20 -5 3 -11 1
-15 -5 -3 -5 -12 -10 -18 -10 -7 0 -6 4 3 11 11 8 6 9 -20 4 -26 -5 -31 -4
-20 4 8 6 10 11 4 11 -7 0 -11 11 -10 25 1 17 6 23 16 21 8 -2 26 -7 40 -10z"/>
<path d="M1755 440 c3 -5 8 -10 11 -10 2 0 4 5 4 10 0 6 -5 10 -11 10 -5 0 -7
-4 -4 -10z"/>
<path d="M245 161 c-3 -5 -2 -12 3 -15 5 -3 9 1 9 9 0 17 -3 19 -12 6z"/>
</g>
</svg>
