<?xml version="1.0" standalone="no"?>
<!DOCTYPE svg PUBLIC "-//W3C//DTD SVG 20010904//EN"
 "http://www.w3.org/TR/2001/REC-SVG-20010904/DTD/svg10.dtd">
<svg version="1.0" xmlns="http://www.w3.org/2000/svg"
 width="373.000000pt" height="288.000000pt" viewBox="0 0 373.000000 288.000000"
 preserveAspectRatio="xMidYMid meet">

<g transform="translate(0.000000,288.000000) scale(0.100000,-0.100000)"
fill="#000000" stroke="none">
<path d="M1638 2673 l-43 -103 -50 0 c-47 0 -160 -11 -250 -25 l-40 -6 -58 95
-58 95 -47 -21 c-26 -11 -85 -36 -131 -55 -143 -58 -181 -75 -181 -82 0 -4 25
-46 55 -95 30 -48 55 -91 55 -95 0 -4 -25 -45 -55 -90 -53 -79 -64 -112 -47
-139 9 -13 26 -7 251 93 325 144 700 140 1014 -10 288 -137 499 -386 562 -661
l16 -72 87 -6 c48 -4 102 -10 121 -13 l34 -6 -6 60 -6 60 52 25 c29 14 76 36
105 48 28 12 52 26 52 30 0 5 -22 63 -50 131 -28 68 -50 124 -50 126 0 8 -45
1 -122 -17 -46 -11 -90 -20 -99 -20 -9 0 -33 26 -55 57 -21 31 -58 80 -82 108
-69 80 -69 72 5 171 l66 87 -25 21 c-14 12 -67 52 -118 89 l-93 68 -37 -28
c-21 -15 -63 -48 -94 -72 l-56 -43 -77 40 c-43 21 -100 47 -128 57 -79 29 -77
26 -73 144 l3 105 -152 26 -152 26 -43 -103z"/>
<path d="M630 2253 c-245 -173 -372 -371 -395 -616 -7 -77 7 -202 27 -240 6
-12 6 -23 -2 -32 -8 -9 -9 -29 -5 -54 6 -35 2 -48 -38 -113 -89 -147 -133
-251 -123 -291 8 -33 36 -45 127 -57 99 -12 122 -28 107 -71 -12 -36 9 -75 47
-85 25 -6 33 -28 15 -39 -25 -15 8 -95 39 -95 5 0 12 -35 16 -78 8 -92 30
-185 52 -219 20 -30 63 -53 101 -53 15 0 66 13 113 28 73 25 88 27 113 17 34
-14 78 -5 107 21 17 16 22 15 74 -11 52 -27 156 -124 217 -204 l26 -34 70 59
c88 75 222 155 322 193 114 44 290 82 420 89 113 7 115 7 118 32 2 20 -3 28
-30 38 -18 8 -127 49 -242 93 -198 75 -302 118 -389 160 -35 16 -49 17 -153 7
-63 -6 -118 -8 -122 -4 -4 4 6 30 21 59 14 28 26 51 24 52 -133 85 -151 92
-253 97 -89 3 -105 7 -163 38 -75 40 -125 100 -147 178 -20 66 -13 118 23 185
33 60 80 102 153 136 48 23 67 26 160 26 86 -1 114 -5 152 -22 101 -47 178
-150 178 -240 0 -45 20 -68 79 -93 29 -11 33 -10 66 19 20 17 44 31 54 31 48
0 88 -81 57 -113 -9 -9 -16 -18 -16 -21 0 -3 24 -18 53 -33 52 -28 53 -28 314
-33 144 -3 264 -8 268 -12 4 -4 0 -17 -9 -30 -9 -12 -16 -26 -16 -30 0 -5 40
-8 89 -8 l89 0 21 36 c15 25 26 34 39 30 9 -2 85 -8 167 -11 197 -9 203 -10
223 -35 28 -35 112 -28 133 12 9 16 7 26 -8 47 -25 33 -100 43 -120 15 -11
-15 -27 -16 -204 -5 -106 6 -194 13 -195 14 -1 1 11 40 27 87 16 47 29 93 29
103 0 16 6 18 58 12 129 -15 568 -108 584 -124 4 -4 1 -42 -7 -85 -8 -43 -15
-81 -15 -85 0 -4 41 -15 92 -25 105 -20 101 -23 118 71 7 35 15 65 19 67 14 9
103 -19 109 -33 11 -32 36 -51 66 -51 72 0 103 68 50 109 -32 25 -61 27 -92 5
-22 -15 -35 -13 -215 35 -318 84 -455 114 -637 140 l-115 16 4 85 c1 47 5 89
8 94 7 11 347 1 470 -14 61 -7 87 -14 103 -30 28 -28 81 -26 117 4 27 24 27
26 13 53 -26 48 -95 56 -135 17 -14 -15 -27 -15 -116 -5 -55 6 -180 11 -279
11 -178 0 -180 0 -184 23 -34 174 -74 275 -153 385 -150 212 -367 348 -640
403 -92 18 -130 21 -258 16 -142 -5 -305 -33 -328 -56 -4 -4 18 -13 50 -20 32
-7 85 -24 119 -37 51 -20 78 -24 171 -24 174 0 311 -33 464 -112 192 -99 350
-291 394 -480 25 -111 30 -104 -87 -118 -57 -6 -157 -25 -223 -41 -120 -29
-313 -97 -341 -120 -11 -9 -21 -9 -40 0 -14 6 -37 11 -53 11 -24 0 -31 8 -56
61 -15 34 -55 97 -87 141 -43 58 -57 83 -49 91 6 6 11 22 11 37 0 18 10 31 33
44 86 52 205 106 311 141 109 36 120 38 162 27 62 -17 103 5 104 54 0 64 -115
73 -139 11 -6 -16 -23 -25 -64 -35 -82 -19 -264 -93 -354 -144 -70 -40 -84
-44 -139 -43 -52 1 -67 6 -100 31 -22 17 -86 62 -144 100 -57 38 -108 71 -112
74 -4 3 -5 22 -2 41 5 31 13 39 60 62 43 21 63 26 93 21 31 -5 43 -2 60 15 26
26 27 55 1 81 -40 40 -120 12 -120 -43 0 -36 -87 -74 -165 -71 -54 1 -62 4
-88 35 -60 72 -127 217 -127 276 0 12 -3 23 -7 23 -5 -1 -37 -21 -73 -47z
m1758 -936 l-3 -67 -302 -3 c-328 -3 -326 -3 -183 48 160 56 460 115 483 95 4
-4 7 -37 5 -73z m-100 -107 l85 0 -7 -40 c-3 -22 -21 -72 -38 -111 l-32 -71
-265 7 c-257 7 -267 8 -293 30 -15 13 -32 25 -39 27 -6 2 -15 26 -19 52 -6 41
-4 52 14 72 20 24 28 25 206 33 102 5 212 7 244 5 32 -2 97 -4 144 -4z"/>
<path d="M925 1406 c-131 -61 -185 -162 -151 -281 21 -70 70 -126 144 -162 49
-24 69 -28 142 -28 l85 0 129 -73 c330 -189 644 -295 956 -323 106 -10 142 -9
235 5 61 9 128 21 150 28 34 10 36 12 15 15 -48 6 -135 26 -143 34 -5 4 1 57
13 119 11 62 20 114 18 115 -2 2 -34 -3 -73 -11 -197 -38 -473 -3 -712 92
-118 46 -279 128 -350 176 -40 27 -42 31 -41 78 0 95 -59 174 -166 220 -69 29
-184 28 -251 -4z m212 -135 c51 -37 59 -116 16 -156 -79 -73 -205 -45 -229 52
-7 26 10 76 32 94 46 38 135 43 181 10z"/>
<path d="M2647 1313 c-2 -32 -2 -61 2 -64 3 -4 36 -10 73 -14 l67 -6 6 48 c14
95 19 88 -66 91 l-76 3 -6 -58z"/>
<path d="M2947 1347 c-3 -12 -9 -43 -12 -68 l-7 -47 72 -7 c39 -4 76 -3 81 2
4 4 11 34 15 65 l7 57 -34 5 c-115 17 -117 17 -122 -7z"/>
<path d="M2616 1079 c-9 -34 -15 -63 -14 -64 2 -1 29 -5 60 -8 l57 -5 14 61
c7 34 12 65 10 70 -2 4 -28 7 -57 7 l-53 0 -17 -61z"/>
<path d="M2866 1088 c-3 -13 -6 -35 -6 -50 0 -28 1 -28 65 -28 53 0 66 3 75
19 23 44 13 58 -47 70 -76 15 -80 14 -87 -11z"/>
<path d="M2652 799 c-25 -92 -41 -173 -36 -181 3 -4 14 -8 26 -8 11 0 67 -8
124 -17 57 -9 107 -14 110 -10 9 9 43 164 43 197 1 25 -2 26 -91 39 -51 7
-109 15 -129 18 -35 5 -36 4 -47 -38z"/>
</g>
</svg>
